<?xml version="1.0" encoding="UTF-8" standalone="no"?>
<!DOCTYPE svg PUBLIC "-//W3C//DTD SVG 1.1//EN"
 "http://www.w3.org/Graphics/SVG/1.1/DTD/svg11.dtd">
<!-- Generated by graphviz version 2.43.0 (0)
 -->
<!-- Title: G Pages: 1 -->
<svg width="796pt" height="304pt"
 viewBox="0.00 0.00 796.00 304.00" xmlns="http://www.w3.org/2000/svg" xmlns:xlink="http://www.w3.org/1999/xlink">
<g id="graph0" class="graph" transform="scale(1 1) rotate(0) translate(4 300)">
<title>G</title>
<polygon fill="white" stroke="transparent" points="-4,4 -4,-300 792,-300 792,4 -4,4"/>
<!-- data.google_project.current -->
<g id="node1" class="node">
<title>data.google_project.current</title>
<polygon fill="none" stroke="black" points="211.5,-36 60.5,-36 60.5,0 211.5,0 211.5,-36"/>
<text text-anchor="middle" x="136" y="-15.5" font-family="sans-serif" font-size="10.00">data.google_project.current</text>
</g>
<!-- google_iam_workload_identity_pool.github -->
<g id="node2" class="node">
<title>google_iam_workload_identity_pool.github</title>
<polygon fill="none" stroke="black" points="557,-263 330,-263 330,-227 557,-227 557,-263"/>
<text text-anchor="middle" x="443.5" y="-242.5" font-family="sans-serif" font-size="10.00">google_iam_workload_identity_pool.github</text>
</g>
<!-- google_project_service.required -->
<g id="node4" class="node">
<title>google_project_service.required</title>
<polygon fill="none" stroke="black" points="788,-198 615,-198 615,-162 788,-162 788,-198"/>
<text text-anchor="middle" x="701.5" y="-177.5" font-family="sans-serif" font-size="10.00">google_project_service.required</text>
</g>
<!-- google_iam_workload_identity_pool.github&#45;&gt;google_project_service.required -->
<g id="edge1" class="edge">
<title>google_iam_workload_identity_pool.github&#45;&gt;google_project_service.required</title>
<path fill="none" stroke="black" d="M515.47,-226.98C548.63,-218.56 588.2,-208.51 622.22,-199.88"/>
<polygon fill="black" stroke="black" points="623.21,-202.15 629.39,-198.05 622,-197.4 623.21,-202.15"/>
</g>
<!-- google_iam_workload_identity_pool_provider.github -->
<g id="node3" class="node">
<title>google_iam_workload_identity_pool_provider.github</title>
<polygon fill="none" stroke="black" points="272,-296 0,-296 0,-260 272,-260 272,-296"/>
<text text-anchor="middle" x="136" y="-275.5" font-family="sans-serif" font-size="10.00">google_iam_workload_identity_pool_provider.github</text>
</g>
<!-- google_iam_workload_identity_pool_provider.github&#45;&gt;google_iam_workload_identity_pool.github -->
<g id="edge2" class="edge">
<title>google_iam_workload_identity_pool_provider.github&#45;&gt;google_iam_workload_identity_pool.github</title>
<path fill="none" stroke="black" d="M272.33,-263.38C289.09,-261.57 306.13,-259.73 322.63,-257.95"/>
<polygon fill="black" stroke="black" points="322.98,-260.38 329.67,-257.19 322.45,-255.5 322.98,-260.38"/>
</g>
<!-- google_service_account.github -->
<g id="node5" class="node">
<title>google_service_account.github</title>
<polygon fill="none" stroke="black" points="527,-198 360,-198 360,-162 527,-162 527,-198"/>
<text text-anchor="middle" x="443.5" y="-177.5" font-family="sans-serif" font-size="10.00">google_service_account.github</text>
</g>
<!-- google_service_account.github&#45;&gt;google_project_service.required -->
<g id="edge3" class="edge">
<title>google_service_account.github&#45;&gt;google_project_service.required</title>
<path fill="none" stroke="black" d="M527.26,-180C553.01,-180 581.56,-180 607.93,-180"/>
<polygon fill="black" stroke="black" points="607.94,-182.45 614.94,-180 607.94,-177.55 607.94,-182.45"/>
</g>
<!-- google_service_account_iam_member.wif -->
<g id="node6" class="node">
<title>google_service_account_iam_member.wif</title>
<polygon fill="none" stroke="black" points="246.5,-231 25.5,-231 25.5,-195 246.5,-195 246.5,-231"/>
<text text-anchor="middle" x="136" y="-210.5" font-family="sans-serif" font-size="10.00">google_service_account_iam_member.wif</text>
</g>
<!-- google_service_account_iam_member.wif&#45;&gt;google_iam_workload_identity_pool.github -->
<g id="edge4" class="edge">
<title>google_service_account_iam_member.wif&#45;&gt;google_iam_workload_identity_pool.github</title>
<path fill="none" stroke="black" d="M246.86,-224.51C271.49,-227.09 297.73,-229.84 322.74,-232.46"/>
<polygon fill="black" stroke="black" points="322.54,-234.9 329.76,-233.19 323.05,-230.02 322.54,-234.9"/>
</g>
<!-- google_service_account_iam_member.wif&#45;&gt;google_service_account.github -->
<g id="edge5" class="edge">
<title>google_service_account_iam_member.wif&#45;&gt;google_service_account.github</title>
<path fill="none" stroke="black" d="M246.86,-201.13C281.68,-197.37 319.73,-193.26 352.94,-189.67"/>
<polygon fill="black" stroke="black" points="353.25,-192.1 359.95,-188.92 352.73,-187.23 353.25,-192.1"/>
</g>
<!-- google_storage_bucket.demo -->
<g id="node7" class="node">
<title>google_storage_bucket.demo</title>
<polygon fill="none" stroke="black" points="523.5,-133 363.5,-133 363.5,-97 523.5,-97 523.5,-133"/>
<text text-anchor="middle" x="443.5" y="-112.5" font-family="sans-serif" font-size="10.00">google_storage_bucket.demo</text>
</g>
<!-- google_storage_bucket.demo&#45;&gt;google_project_service.required -->
<g id="edge6" class="edge">
<title>google_storage_bucket.demo&#45;&gt;google_project_service.required</title>
<path fill="none" stroke="black" d="M515.47,-133.02C548.63,-141.44 588.2,-151.49 622.22,-160.12"/>
<polygon fill="black" stroke="black" points="622,-162.6 629.39,-161.95 623.21,-157.85 622,-162.6"/>
</g>
<!-- google_storage_bucket_iam_member.demo_viewer -->
<g id="node8" class="node">
<title>google_storage_bucket_iam_member.demo_viewer</title>
<polygon fill="none" stroke="black" points="270,-166 2,-166 2,-130 270,-130 270,-166"/>
<text text-anchor="middle" x="136" y="-145.5" font-family="sans-serif" font-size="10.00">google_storage_bucket_iam_member.demo_viewer</text>
</g>
<!-- google_storage_bucket_iam_member.demo_viewer&#45;&gt;google_service_account.github -->
<g id="edge7" class="edge">
<title>google_storage_bucket_iam_member.demo_viewer&#45;&gt;google_service_account.github</title>
<path fill="none" stroke="black" d="M270.11,-161.94C298.03,-164.87 326.85,-167.89 352.74,-170.6"/>
<polygon fill="black" stroke="black" points="352.74,-173.06 359.96,-171.35 353.25,-168.19 352.74,-173.06"/>
</g>
<!-- google_storage_bucket_iam_member.demo_viewer&#45;&gt;google_storage_bucket.demo -->
<g id="edge8" class="edge">
<title>google_storage_bucket_iam_member.demo_viewer&#45;&gt;google_storage_bucket.demo</title>
<path fill="none" stroke="black" d="M270.11,-133.62C299.33,-130.46 329.53,-127.2 356.33,-124.31"/>
<polygon fill="black" stroke="black" points="356.74,-126.73 363.44,-123.54 356.21,-121.86 356.74,-126.73"/>
</g>
<!-- google_storage_bucket_object.hello -->
<g id="node9" class="node">
<title>google_storage_bucket_object.hello</title>
<polygon fill="none" stroke="black" points="231.5,-101 40.5,-101 40.5,-65 231.5,-65 231.5,-101"/>
<text text-anchor="middle" x="136" y="-80.5" font-family="sans-serif" font-size="10.00">google_storage_bucket_object.hello</text>
</g>
<!-- google_storage_bucket_object.hello&#45;&gt;google_storage_bucket.demo -->
<g id="edge9" class="edge">
<title>google_storage_bucket_object.hello&#45;&gt;google_storage_bucket.demo</title>
<path fill="none" stroke="black" d="M231.57,-92.91C271.33,-97.07 317.27,-101.88 356.11,-105.95"/>
<polygon fill="black" stroke="black" points="356.05,-108.41 363.27,-106.7 356.56,-103.54 356.05,-108.41"/>
</g>
</g>
</svg>
