<?xml version="1.0" encoding="UTF-8" standalone="no"?>
<!DOCTYPE svg PUBLIC "-//W3C//DTD SVG 1.1//EN"
 "http://www.w3.org/Graphics/SVG/1.1/DTD/svg11.dtd">
<!-- Generated by graphviz version 2.43.0 (0)
 -->
<!-- Title: G Pages: 1 -->
<svg width="845pt" height="629pt"
 viewBox="0.00 0.00 845.00 629.00" xmlns="http://www.w3.org/2000/svg" xmlns:xlink="http://www.w3.org/1999/xlink">
<g id="graph0" class="graph" transform="scale(1 1) rotate(0) translate(4 625)">
<title>G</title>
<polygon fill="white" stroke="transparent" points="-4,4 -4,-625 841,-625 841,4 -4,4"/>
<!-- google_compute_network.lab -->
<g id="node1" class="node">
<title>google_compute_network.lab</title>
<polygon fill="none" stroke="black" points="590.5,-523 429.5,-523 429.5,-487 590.5,-487 590.5,-523"/>
<text text-anchor="middle" x="510" y="-502.5" font-family="sans-serif" font-size="10.00">google_compute_network.lab</text>
</g>
<!-- google_project_service.this -->
<g id="node7" class="node">
<title>google_project_service.this</title>
<polygon fill="none" stroke="black" points="837,-328 687,-328 687,-292 837,-292 837,-328"/>
<text text-anchor="middle" x="762" y="-307.5" font-family="sans-serif" font-size="10.00">google_project_service.this</text>
</g>
<!-- google_compute_network.lab&#45;&gt;google_project_service.this -->
<g id="edge1" class="edge">
<title>google_compute_network.lab&#45;&gt;google_project_service.this</title>
<path fill="none" stroke="black" d="M544.5,-486.83C579.38,-467.91 629,-441 629,-441 629,-441 699.29,-371.24 737.29,-333.53"/>
<polygon fill="black" stroke="black" points="739.4,-334.88 742.65,-328.21 735.95,-331.41 739.4,-334.88"/>
</g>
<!-- google_compute_subnetwork.lab -->
<g id="node2" class="node">
<title>google_compute_subnetwork.lab</title>
<polygon fill="none" stroke="black" points="255.5,-556 77.5,-556 77.5,-520 255.5,-520 255.5,-556"/>
<text text-anchor="middle" x="166.5" y="-535.5" font-family="sans-serif" font-size="10.00">google_compute_subnetwork.lab</text>
</g>
<!-- google_compute_subnetwork.lab&#45;&gt;google_compute_network.lab -->
<g id="edge2" class="edge">
<title>google_compute_subnetwork.lab&#45;&gt;google_compute_network.lab</title>
<path fill="none" stroke="black" d="M255.89,-529.46C307.13,-524.51 371.39,-518.3 422.34,-513.37"/>
<polygon fill="black" stroke="black" points="422.71,-515.8 429.44,-512.69 422.24,-510.92 422.71,-515.8"/>
</g>
<!-- google_project_iam_custom_role.create_only -->
<g id="node3" class="node">
<title>google_project_iam_custom_role.create_only</title>
<polygon fill="none" stroke="black" points="629,-426 391,-426 391,-390 629,-390 629,-426"/>
<text text-anchor="middle" x="510" y="-405.5" font-family="sans-serif" font-size="10.00">google_project_iam_custom_role.create_only</text>
</g>
<!-- google_project_iam_custom_role.create_only&#45;&gt;google_project_service.this -->
<g id="edge3" class="edge">
<title>google_project_iam_custom_role.create_only&#45;&gt;google_project_service.this</title>
<path fill="none" stroke="black" d="M577.59,-389.94C604.35,-382.68 629,-376 629,-376 629,-376 679.8,-350.6 718.37,-331.31"/>
<polygon fill="black" stroke="black" points="719.77,-333.36 724.93,-328.03 717.57,-328.97 719.77,-333.36"/>
</g>
<!-- google_project_iam_member.console -->
<g id="node4" class="node">
<title>google_project_iam_member.console</title>
<polygon fill="none" stroke="black" points="266,-621 67,-621 67,-585 266,-585 266,-621"/>
<text text-anchor="middle" x="166.5" y="-600.5" font-family="sans-serif" font-size="10.00">google_project_iam_member.console</text>
</g>
<!-- google_project_iam_member.subject_compute -->
<g id="node5" class="node">
<title>google_project_iam_member.subject_compute</title>
<polygon fill="none" stroke="black" points="289,-426 44,-426 44,-390 289,-390 289,-426"/>
<text text-anchor="middle" x="166.5" y="-405.5" font-family="sans-serif" font-size="10.00">google_project_iam_member.subject_compute</text>
</g>
<!-- google_project_iam_member.subject_compute&#45;&gt;google_project_iam_custom_role.create_only -->
<g id="edge4" class="edge">
<title>google_project_iam_member.subject_compute&#45;&gt;google_project_iam_custom_role.create_only</title>
<path fill="none" stroke="black" d="M289.34,-408C319.93,-408 352.81,-408 383.57,-408"/>
<polygon fill="black" stroke="black" points="383.93,-410.45 390.93,-408 383.93,-405.55 383.93,-410.45"/>
</g>
<!-- google_service_account.subject -->
<g id="node8" class="node">
<title>google_service_account.subject</title>
<polygon fill="none" stroke="black" points="596,-296 424,-296 424,-260 596,-260 596,-296"/>
<text text-anchor="middle" x="510" y="-275.5" font-family="sans-serif" font-size="10.00">google_service_account.subject</text>
</g>
<!-- google_project_iam_member.subject_compute&#45;&gt;google_service_account.subject -->
<g id="edge5" class="edge">
<title>google_project_iam_member.subject_compute&#45;&gt;google_service_account.subject</title>
<path fill="none" stroke="black" d="M260.89,-389.94C298.43,-382.68 333,-376 333,-376 333,-376 391,-311 391,-311 391,-311 412.66,-304.94 437.43,-298.02"/>
<polygon fill="black" stroke="black" points="438.39,-300.29 444.48,-296.04 437.07,-295.57 438.39,-300.29"/>
</g>
<!-- google_project_iam_member.terraform_compute -->
<g id="node6" class="node">
<title>google_project_iam_member.terraform_compute</title>
<polygon fill="none" stroke="black" points="294.5,-491 38.5,-491 38.5,-455 294.5,-455 294.5,-491"/>
<text text-anchor="middle" x="166.5" y="-470.5" font-family="sans-serif" font-size="10.00">google_project_iam_member.terraform_compute</text>
</g>
<!-- google_project_iam_member.terraform_compute&#45;&gt;google_project_iam_custom_role.create_only -->
<g id="edge6" class="edge">
<title>google_project_iam_member.terraform_compute&#45;&gt;google_project_iam_custom_role.create_only</title>
<path fill="none" stroke="black" d="M262.17,-454.98C307.23,-446.4 361.18,-436.14 407.13,-427.39"/>
<polygon fill="black" stroke="black" points="407.72,-429.77 414.14,-426.05 406.81,-424.96 407.72,-429.77"/>
</g>
<!-- google_service_account.terraform -->
<g id="node9" class="node">
<title>google_service_account.terraform</title>
<polygon fill="none" stroke="black" points="601.5,-361 418.5,-361 418.5,-325 601.5,-325 601.5,-361"/>
<text text-anchor="middle" x="510" y="-340.5" font-family="sans-serif" font-size="10.00">google_service_account.terraform</text>
</g>
<!-- google_project_iam_member.terraform_compute&#45;&gt;google_service_account.terraform -->
<g id="edge7" class="edge">
<title>google_project_iam_member.terraform_compute&#45;&gt;google_service_account.terraform</title>
<path fill="none" stroke="black" d="M260.89,-454.94C298.43,-447.68 333,-441 333,-441 333,-441 391,-376 391,-376 391,-376 412.66,-369.94 437.43,-363.02"/>
<polygon fill="black" stroke="black" points="438.39,-365.29 444.48,-361.04 437.07,-360.57 438.39,-365.29"/>
</g>
<!-- google_service_account.subject&#45;&gt;google_project_service.this -->
<g id="edge8" class="edge">
<title>google_service_account.subject&#45;&gt;google_project_service.this</title>
<path fill="none" stroke="black" d="M596.34,-288.92C623.34,-292.38 653.11,-296.19 679.82,-299.61"/>
<polygon fill="black" stroke="black" points="679.65,-302.06 686.9,-300.52 680.27,-297.2 679.65,-302.06"/>
</g>
<!-- google_service_account.terraform&#45;&gt;google_project_service.this -->
<g id="edge9" class="edge">
<title>google_service_account.terraform&#45;&gt;google_project_service.this</title>
<path fill="none" stroke="black" d="M601.61,-331.04C627.16,-327.67 654.78,-324.02 679.74,-320.73"/>
<polygon fill="black" stroke="black" points="680.09,-323.15 686.71,-319.81 679.45,-318.29 680.09,-323.15"/>
</g>
<!-- google_service_account.vm_runtime -->
<g id="node10" class="node">
<title>google_service_account.vm_runtime</title>
<polygon fill="none" stroke="black" points="608,-231 412,-231 412,-195 608,-195 608,-231"/>
<text text-anchor="middle" x="510" y="-210.5" font-family="sans-serif" font-size="10.00">google_service_account.vm_runtime</text>
</g>
<!-- google_service_account.vm_runtime&#45;&gt;google_project_service.this -->
<g id="edge10" class="edge">
<title>google_service_account.vm_runtime&#45;&gt;google_project_service.this</title>
<path fill="none" stroke="black" d="M575.52,-231.04C603.07,-238.75 629,-246 629,-246 629,-246 678.6,-270.05 716.99,-288.66"/>
<polygon fill="black" stroke="black" points="716.16,-290.98 723.53,-291.83 718.3,-286.57 716.16,-290.98"/>
</g>
<!-- google_service_account_iam_member.operator_impersonate -->
<g id="node11" class="node">
<title>google_service_account_iam_member.operator_impersonate</title>
<polygon fill="none" stroke="black" points="323.5,-361 9.5,-361 9.5,-325 323.5,-325 323.5,-361"/>
<text text-anchor="middle" x="166.5" y="-340.5" font-family="sans-serif" font-size="10.00">google_service_account_iam_member.operator_impersonate</text>
</g>
<!-- google_service_account_iam_member.operator_impersonate&#45;&gt;google_service_account.subject -->
<g id="edge11" class="edge">
<title>google_service_account_iam_member.operator_impersonate&#45;&gt;google_service_account.subject</title>
<path fill="none" stroke="black" d="M262.17,-324.98C310.43,-315.79 368.88,-304.67 416.78,-295.55"/>
<polygon fill="black" stroke="black" points="417.36,-297.94 423.77,-294.22 416.44,-293.12 417.36,-297.94"/>
</g>
<!-- google_service_account_iam_member.operator_impersonate&#45;&gt;google_service_account.terraform -->
<g id="edge12" class="edge">
<title>google_service_account_iam_member.operator_impersonate&#45;&gt;google_service_account.terraform</title>
<path fill="none" stroke="black" d="M323.76,-343C353.42,-343 383.68,-343 410.9,-343"/>
<polygon fill="black" stroke="black" points="411.12,-345.45 418.12,-343 411.12,-340.55 411.12,-345.45"/>
</g>
<!-- google_service_account_iam_member.subject_act_as_runtime -->
<g id="node12" class="node">
<title>google_service_account_iam_member.subject_act_as_runtime</title>
<polygon fill="none" stroke="black" points="327.5,-231 5.5,-231 5.5,-195 327.5,-195 327.5,-231"/>
<text text-anchor="middle" x="166.5" y="-210.5" font-family="sans-serif" font-size="10.00">google_service_account_iam_member.subject_act_as_runtime</text>
</g>
<!-- google_service_account_iam_member.subject_act_as_runtime&#45;&gt;google_service_account.subject -->
<g id="edge13" class="edge">
<title>google_service_account_iam_member.subject_act_as_runtime&#45;&gt;google_service_account.subject</title>
<path fill="none" stroke="black" d="M262.17,-231.02C310.43,-240.21 368.88,-251.33 416.78,-260.45"/>
<polygon fill="black" stroke="black" points="416.44,-262.88 423.77,-261.78 417.36,-258.06 416.44,-262.88"/>
</g>
<!-- google_service_account_iam_member.subject_act_as_runtime&#45;&gt;google_service_account.vm_runtime -->
<g id="edge14" class="edge">
<title>google_service_account_iam_member.subject_act_as_runtime&#45;&gt;google_service_account.vm_runtime</title>
<path fill="none" stroke="black" d="M327.75,-213C353.93,-213 380.45,-213 404.81,-213"/>
<polygon fill="black" stroke="black" points="404.97,-215.45 411.97,-213 404.97,-210.55 404.97,-215.45"/>
</g>
<!-- google_service_account_iam_member.terraform_act_as_runtime -->
<g id="node13" class="node">
<title>google_service_account_iam_member.terraform_act_as_runtime</title>
<polygon fill="none" stroke="black" points="333,-296 0,-296 0,-260 333,-260 333,-296"/>
<text text-anchor="middle" x="166.5" y="-275.5" font-family="sans-serif" font-size="10.00">google_service_account_iam_member.terraform_act_as_runtime</text>
</g>
<!-- google_service_account_iam_member.terraform_act_as_runtime&#45;&gt;google_service_account.terraform -->
<g id="edge15" class="edge">
<title>google_service_account_iam_member.terraform_act_as_runtime&#45;&gt;google_service_account.terraform</title>
<path fill="none" stroke="black" d="M262.17,-296.02C308.55,-304.85 364.34,-315.46 411.13,-324.37"/>
<polygon fill="black" stroke="black" points="410.93,-326.83 418.26,-325.73 411.85,-322.01 410.93,-326.83"/>
</g>
<!-- google_service_account_iam_member.terraform_act_as_runtime&#45;&gt;google_service_account.vm_runtime -->
<g id="edge16" class="edge">
<title>google_service_account_iam_member.terraform_act_as_runtime&#45;&gt;google_service_account.vm_runtime</title>
<path fill="none" stroke="black" d="M262.17,-259.98C307.23,-251.4 361.18,-241.14 407.13,-232.39"/>
<polygon fill="black" stroke="black" points="407.72,-234.77 414.14,-231.05 406.81,-229.96 407.72,-234.77"/>
</g>
<!-- google_storage_bucket.lab -->
<g id="node14" class="node">
<title>google_storage_bucket.lab</title>
<polygon fill="none" stroke="black" points="583.5,-134 436.5,-134 436.5,-98 583.5,-98 583.5,-134"/>
<text text-anchor="middle" x="510" y="-113.5" font-family="sans-serif" font-size="10.00">google_storage_bucket.lab</text>
</g>
<!-- google_storage_bucket.lab&#45;&gt;google_project_service.this -->
<g id="edge17" class="edge">
<title>google_storage_bucket.lab&#45;&gt;google_project_service.this</title>
<path fill="none" stroke="black" d="M543.87,-134.11C578.78,-153.34 629,-181 629,-181 629,-181 698.93,-249.34 737,-286.54"/>
<polygon fill="black" stroke="black" points="735.65,-288.65 742.37,-291.79 739.07,-285.15 735.65,-288.65"/>
</g>
<!-- google_storage_bucket_iam_member.console -->
<g id="node15" class="node">
<title>google_storage_bucket_iam_member.console</title>
<polygon fill="none" stroke="black" points="286,-36 47,-36 47,0 286,0 286,-36"/>
<text text-anchor="middle" x="166.5" y="-15.5" font-family="sans-serif" font-size="10.00">google_storage_bucket_iam_member.console</text>
</g>
<!-- google_storage_bucket_iam_member.console&#45;&gt;google_storage_bucket.lab -->
<g id="edge18" class="edge">
<title>google_storage_bucket_iam_member.console&#45;&gt;google_storage_bucket.lab</title>
<path fill="none" stroke="black" d="M260.89,-36.06C298.43,-43.32 333,-50 333,-50 333,-50 402.42,-76.03 454.07,-95.4"/>
<polygon fill="black" stroke="black" points="453.49,-97.8 460.91,-97.97 455.21,-93.21 453.49,-97.8"/>
</g>
<!-- google_storage_bucket_iam_member.subject -->
<g id="node16" class="node">
<title>google_storage_bucket_iam_member.subject</title>
<polygon fill="none" stroke="black" points="285,-166 48,-166 48,-130 285,-130 285,-166"/>
<text text-anchor="middle" x="166.5" y="-145.5" font-family="sans-serif" font-size="10.00">google_storage_bucket_iam_member.subject</text>
</g>
<!-- google_storage_bucket_iam_member.subject&#45;&gt;google_service_account.subject -->
<g id="edge19" class="edge">
<title>google_storage_bucket_iam_member.subject&#45;&gt;google_service_account.subject</title>
<path fill="none" stroke="black" d="M258,-166.04C296.64,-173.75 333,-181 333,-181 333,-181 391,-246 391,-246 391,-246 411.59,-251.58 435.57,-258.09"/>
<polygon fill="black" stroke="black" points="435.02,-260.47 442.41,-259.94 436.3,-255.75 435.02,-260.47"/>
</g>
<!-- google_storage_bucket_iam_member.subject&#45;&gt;google_storage_bucket.lab -->
<g id="edge20" class="edge">
<title>google_storage_bucket_iam_member.subject&#45;&gt;google_storage_bucket.lab</title>
<path fill="none" stroke="black" d="M285.02,-136.99C332.63,-132.53 386.38,-127.49 429.28,-123.47"/>
<polygon fill="black" stroke="black" points="429.61,-125.9 436.35,-122.81 429.15,-121.02 429.61,-125.9"/>
</g>
<!-- google_storage_bucket_object.hello -->
<g id="node17" class="node">
<title>google_storage_bucket_object.hello</title>
<polygon fill="none" stroke="black" points="262,-101 71,-101 71,-65 262,-65 262,-101"/>
<text text-anchor="middle" x="166.5" y="-80.5" font-family="sans-serif" font-size="10.00">google_storage_bucket_object.hello</text>
</g>
<!-- google_storage_bucket_object.hello&#45;&gt;google_storage_bucket.lab -->
<g id="edge21" class="edge">
<title>google_storage_bucket_object.hello&#45;&gt;google_storage_bucket.lab</title>
<path fill="none" stroke="black" d="M262.17,-92.15C314.66,-97.22 379.21,-103.46 429.13,-108.28"/>
<polygon fill="black" stroke="black" points="429.19,-110.75 436.39,-108.98 429.66,-105.87 429.19,-110.75"/>
</g>
</g>
</svg>
