<?xml version="1.0" encoding="UTF-8" standalone="no"?>
<!DOCTYPE svg PUBLIC "-//W3C//DTD SVG 1.1//EN"
 "http://www.w3.org/Graphics/SVG/1.1/DTD/svg11.dtd">
<!-- Generated by graphviz version 2.43.0 (0)
 -->
<!-- Title: G Pages: 1 -->
<svg width="1240pt" height="360pt"
 viewBox="0.00 0.00 1240.00 360.00" xmlns="http://www.w3.org/2000/svg" xmlns:xlink="http://www.w3.org/1999/xlink">
<g id="graph0" class="graph" transform="scale(1 1) rotate(0) translate(4 356)">
<title>G</title>
<polygon fill="white" stroke="transparent" points="-4,4 -4,-356 1236,-356 1236,4 -4,4"/>
<!-- data.google_compute_image.debian -->
<g id="node1" class="node">
<title>data.google_compute_image.debian</title>
<polygon fill="none" stroke="black" points="723,-352 529,-352 529,-316 723,-316 723,-352"/>
<text text-anchor="middle" x="626" y="-331.5" font-family="sans-serif" font-size="10.00">data.google_compute_image.debian</text>
</g>
<!-- google_compute_firewall.allow_iap_ssh -->
<g id="node2" class="node">
<title>google_compute_firewall.allow_iap_ssh</title>
<polygon fill="none" stroke="black" points="731,-287 521,-287 521,-251 731,-251 731,-287"/>
<text text-anchor="middle" x="626" y="-266.5" font-family="sans-serif" font-size="10.00">google_compute_firewall.allow_iap_ssh</text>
</g>
<!-- google_compute_network.vpc -->
<g id="node4" class="node">
<title>google_compute_network.vpc</title>
<polygon fill="none" stroke="black" points="976.5,-231 813.5,-231 813.5,-195 976.5,-195 976.5,-231"/>
<text text-anchor="middle" x="895" y="-210.5" font-family="sans-serif" font-size="10.00">google_compute_network.vpc</text>
</g>
<!-- google_compute_firewall.allow_iap_ssh&#45;&gt;google_compute_network.vpc -->
<g id="edge1" class="edge">
<title>google_compute_firewall.allow_iap_ssh&#45;&gt;google_compute_network.vpc</title>
<path fill="none" stroke="black" d="M712.95,-250.97C742.73,-244.73 776.14,-237.72 806.07,-231.44"/>
<polygon fill="black" stroke="black" points="806.86,-233.78 813.2,-229.95 805.85,-228.99 806.86,-233.78"/>
</g>
<!-- google_compute_instance.vm -->
<g id="node3" class="node">
<title>google_compute_instance.vm</title>
<polygon fill="none" stroke="black" points="463,-191 300,-191 300,-155 463,-155 463,-191"/>
<text text-anchor="middle" x="381.5" y="-170.5" font-family="sans-serif" font-size="10.00">google_compute_instance.vm</text>
</g>
<!-- google_compute_instance.vm&#45;&gt;data.google_compute_image.debian -->
<g id="edge2" class="edge">
<title>google_compute_instance.vm&#45;&gt;data.google_compute_image.debian</title>
<path fill="none" stroke="black" d="M402.05,-191.21C440.23,-226.77 521,-302 521,-302 521,-302 538.69,-307.44 559.47,-313.84"/>
<polygon fill="black" stroke="black" points="558.9,-316.23 566.31,-315.94 560.34,-311.54 558.9,-316.23"/>
</g>
<!-- google_compute_instance.vm&#45;&gt;google_compute_firewall.allow_iap_ssh -->
<g id="edge3" class="edge">
<title>google_compute_instance.vm&#45;&gt;google_compute_firewall.allow_iap_ssh</title>
<path fill="none" stroke="black" d="M421.82,-191.17C462.76,-210.09 521,-237 521,-237 521,-237 538.69,-242.44 559.47,-248.84"/>
<polygon fill="black" stroke="black" points="558.9,-251.23 566.31,-250.94 560.34,-246.54 558.9,-251.23"/>
</g>
<!-- google_compute_subnetwork.primary -->
<g id="node5" class="node">
<title>google_compute_subnetwork.primary</title>
<polygon fill="none" stroke="black" points="726.5,-222 525.5,-222 525.5,-186 726.5,-186 726.5,-222"/>
<text text-anchor="middle" x="626" y="-201.5" font-family="sans-serif" font-size="10.00">google_compute_subnetwork.primary</text>
</g>
<!-- google_compute_instance.vm&#45;&gt;google_compute_subnetwork.primary -->
<g id="edge4" class="edge">
<title>google_compute_instance.vm&#45;&gt;google_compute_subnetwork.primary</title>
<path fill="none" stroke="black" d="M463.25,-183.32C480.76,-185.56 499.55,-187.96 517.9,-190.31"/>
<polygon fill="black" stroke="black" points="517.93,-192.78 525.18,-191.24 518.55,-187.92 517.93,-192.78"/>
</g>
<!-- google_project_iam_member.iap_tunnel -->
<g id="node7" class="node">
<title>google_project_iam_member.iap_tunnel</title>
<polygon fill="none" stroke="black" points="1001,-166 789,-166 789,-130 1001,-130 1001,-166"/>
<text text-anchor="middle" x="895" y="-145.5" font-family="sans-serif" font-size="10.00">google_project_iam_member.iap_tunnel</text>
</g>
<!-- google_compute_instance.vm&#45;&gt;google_project_iam_member.iap_tunnel -->
<g id="edge5" class="edge">
<title>google_compute_instance.vm&#45;&gt;google_project_iam_member.iap_tunnel</title>
<path fill="none" stroke="black" d="M463.27,-169.05C549.09,-164.86 685.43,-158.19 781.69,-153.49"/>
<polygon fill="black" stroke="black" points="781.97,-155.93 788.84,-153.14 781.73,-151.03 781.97,-155.93"/>
</g>
<!-- google_project_iam_member.os_login -->
<g id="node8" class="node">
<title>google_project_iam_member.os_login</title>
<polygon fill="none" stroke="black" points="996,-101 794,-101 794,-65 996,-65 996,-101"/>
<text text-anchor="middle" x="895" y="-80.5" font-family="sans-serif" font-size="10.00">google_project_iam_member.os_login</text>
</g>
<!-- google_compute_instance.vm&#45;&gt;google_project_iam_member.os_login -->
<g id="edge6" class="edge">
<title>google_compute_instance.vm&#45;&gt;google_project_iam_member.os_login</title>
<path fill="none" stroke="black" d="M463.27,-158.79C550.6,-143.42 690.24,-118.85 786.74,-101.87"/>
<polygon fill="black" stroke="black" points="787.43,-104.24 793.9,-100.61 786.58,-99.41 787.43,-104.24"/>
</g>
<!-- google_service_account.vm -->
<g id="node10" class="node">
<title>google_service_account.vm</title>
<polygon fill="none" stroke="black" points="971,-36 819,-36 819,0 971,0 971,-36"/>
<text text-anchor="middle" x="895" y="-15.5" font-family="sans-serif" font-size="10.00">google_service_account.vm</text>
</g>
<!-- google_compute_instance.vm&#45;&gt;google_service_account.vm -->
<g id="edge7" class="edge">
<title>google_compute_instance.vm&#45;&gt;google_service_account.vm</title>
<path fill="none" stroke="black" d="M419.98,-154.87C461,-135.03 521,-106 521,-106 521,-106 702.01,-63.3 811.84,-37.38"/>
<polygon fill="black" stroke="black" points="812.72,-39.69 818.97,-35.7 811.59,-34.93 812.72,-39.69"/>
</g>
<!-- google_project_service.required -->
<g id="node9" class="node">
<title>google_project_service.required</title>
<polygon fill="none" stroke="black" points="1232,-133 1059,-133 1059,-97 1232,-97 1232,-133"/>
<text text-anchor="middle" x="1145.5" y="-112.5" font-family="sans-serif" font-size="10.00">google_project_service.required</text>
</g>
<!-- google_compute_network.vpc&#45;&gt;google_project_service.required -->
<g id="edge8" class="edge">
<title>google_compute_network.vpc&#45;&gt;google_project_service.required</title>
<path fill="none" stroke="black" d="M955.25,-194.94C979.07,-187.68 1001,-181 1001,-181 1001,-181 1056.68,-155.39 1098.68,-136.08"/>
<polygon fill="black" stroke="black" points="1099.95,-138.19 1105.29,-133.03 1097.9,-133.73 1099.95,-138.19"/>
</g>
<!-- google_compute_subnetwork.primary&#45;&gt;google_compute_network.vpc -->
<g id="edge9" class="edge">
<title>google_compute_subnetwork.primary&#45;&gt;google_compute_network.vpc</title>
<path fill="none" stroke="black" d="M726.8,-207.36C752.93,-208.24 780.9,-209.19 806.35,-210.05"/>
<polygon fill="black" stroke="black" points="806.38,-212.5 813.45,-210.28 806.54,-207.6 806.38,-212.5"/>
</g>
<!-- google_iap_tunnel_instance_iam_member.ssh -->
<g id="node6" class="node">
<title>google_iap_tunnel_instance_iam_member.ssh</title>
<polygon fill="none" stroke="black" points="242,-191 0,-191 0,-155 242,-155 242,-191"/>
<text text-anchor="middle" x="121" y="-170.5" font-family="sans-serif" font-size="10.00">google_iap_tunnel_instance_iam_member.ssh</text>
</g>
<!-- google_iap_tunnel_instance_iam_member.ssh&#45;&gt;google_compute_instance.vm -->
<g id="edge10" class="edge">
<title>google_iap_tunnel_instance_iam_member.ssh&#45;&gt;google_compute_instance.vm</title>
<path fill="none" stroke="black" d="M242.17,-173C259.09,-173 276.22,-173 292.39,-173"/>
<polygon fill="black" stroke="black" points="292.75,-175.45 299.75,-173 292.75,-170.55 292.75,-175.45"/>
</g>
<!-- google_project_iam_member.iap_tunnel&#45;&gt;google_project_service.required -->
<g id="edge11" class="edge">
<title>google_project_iam_member.iap_tunnel&#45;&gt;google_project_service.required</title>
<path fill="none" stroke="black" d="M1001.03,-134.05C1017.83,-131.82 1035.12,-129.53 1051.62,-127.33"/>
<polygon fill="black" stroke="black" points="1052.02,-129.75 1058.64,-126.4 1051.37,-124.9 1052.02,-129.75"/>
</g>
<!-- google_project_iam_member.os_login&#45;&gt;google_project_service.required -->
<g id="edge12" class="edge">
<title>google_project_iam_member.os_login&#45;&gt;google_project_service.required</title>
<path fill="none" stroke="black" d="M996,-95.88C1014.34,-98.24 1033.4,-100.69 1051.52,-103.03"/>
<polygon fill="black" stroke="black" points="1051.43,-105.49 1058.69,-103.95 1052.06,-100.63 1051.43,-105.49"/>
</g>
<!-- google_service_account.vm&#45;&gt;google_project_service.required -->
<g id="edge13" class="edge">
<title>google_service_account.vm&#45;&gt;google_project_service.required</title>
<path fill="none" stroke="black" d="M955.25,-36.06C979.07,-43.32 1001,-50 1001,-50 1001,-50 1056.02,-74.92 1097.93,-93.9"/>
<polygon fill="black" stroke="black" points="1097.14,-96.24 1104.53,-96.89 1099.16,-91.77 1097.14,-96.24"/>
</g>
</g>
</svg>
