<?xml version="1.0" encoding="UTF-8" standalone="no"?>
<!DOCTYPE svg PUBLIC "-//W3C//DTD SVG 1.1//EN"
 "http://www.w3.org/Graphics/SVG/1.1/DTD/svg11.dtd">
<!-- Generated by graphviz version 2.43.0 (0)
 -->
<!-- Title: G Pages: 1 -->
<svg width="1276pt" height="431pt"
 viewBox="0.00 0.00 1276.00 431.00" xmlns="http://www.w3.org/2000/svg" xmlns:xlink="http://www.w3.org/1999/xlink">
<g id="graph0" class="graph" transform="scale(1 1) rotate(0) translate(4 427)">
<title>G</title>
<polygon fill="white" stroke="transparent" points="-4,4 -4,-427 1272,-427 1272,4 -4,4"/>
<!-- google_compute_address.nat_egress -->
<g id="node1" class="node">
<title>google_compute_address.nat_egress</title>
<polygon fill="none" stroke="black" points="808,-420 611,-420 611,-384 808,-384 808,-420"/>
<text text-anchor="middle" x="709.5" y="-399.5" font-family="sans-serif" font-size="10.00">google_compute_address.nat_egress</text>
</g>
<!-- google_compute_firewall.allow_iap_http -->
<g id="node2" class="node">
<title>google_compute_firewall.allow_iap_http</title>
<polygon fill="none" stroke="black" points="816,-166 603,-166 603,-130 816,-130 816,-166"/>
<text text-anchor="middle" x="709.5" y="-145.5" font-family="sans-serif" font-size="10.00">google_compute_firewall.allow_iap_http</text>
</g>
<!-- google_compute_network.vpc -->
<g id="node5" class="node">
<title>google_compute_network.vpc</title>
<polygon fill="none" stroke="black" points="1037,-166 874,-166 874,-130 1037,-130 1037,-166"/>
<text text-anchor="middle" x="955.5" y="-145.5" font-family="sans-serif" font-size="10.00">google_compute_network.vpc</text>
</g>
<!-- google_compute_firewall.allow_iap_http&#45;&gt;google_compute_network.vpc -->
<g id="edge1" class="edge">
<title>google_compute_firewall.allow_iap_http&#45;&gt;google_compute_network.vpc</title>
<path fill="none" stroke="black" d="M816.1,-148C832.86,-148 850.03,-148 866.33,-148"/>
<polygon fill="black" stroke="black" points="866.75,-150.45 873.75,-148 866.75,-145.55 866.75,-150.45"/>
</g>
<!-- google_compute_firewall.allow_iap_ssh -->
<g id="node3" class="node">
<title>google_compute_firewall.allow_iap_ssh</title>
<polygon fill="none" stroke="black" points="814.5,-101 604.5,-101 604.5,-65 814.5,-65 814.5,-101"/>
<text text-anchor="middle" x="709.5" y="-80.5" font-family="sans-serif" font-size="10.00">google_compute_firewall.allow_iap_ssh</text>
</g>
<!-- google_compute_firewall.allow_iap_ssh&#45;&gt;google_compute_network.vpc -->
<g id="edge2" class="edge">
<title>google_compute_firewall.allow_iap_ssh&#45;&gt;google_compute_network.vpc</title>
<path fill="none" stroke="black" d="M778.14,-101.02C809.74,-109.44 847.46,-119.49 879.89,-128.12"/>
<polygon fill="black" stroke="black" points="879.33,-130.51 886.72,-129.95 880.59,-125.78 879.33,-130.51"/>
</g>
<!-- google_compute_instance.web -->
<g id="node4" class="node">
<title>google_compute_instance.web</title>
<polygon fill="none" stroke="black" points="204.5,-228 37.5,-228 37.5,-192 204.5,-192 204.5,-228"/>
<text text-anchor="middle" x="121" y="-207.5" font-family="sans-serif" font-size="10.00">google_compute_instance.web</text>
</g>
<!-- google_compute_router_nat.nat -->
<g id="node7" class="node">
<title>google_compute_router_nat.nat</title>
<polygon fill="none" stroke="black" points="508.5,-358 336.5,-358 336.5,-322 508.5,-322 508.5,-358"/>
<text text-anchor="middle" x="422.5" y="-337.5" font-family="sans-serif" font-size="10.00">google_compute_router_nat.nat</text>
</g>
<!-- google_compute_instance.web&#45;&gt;google_compute_router_nat.nat -->
<g id="edge3" class="edge">
<title>google_compute_instance.web&#45;&gt;google_compute_router_nat.nat</title>
<path fill="none" stroke="black" d="M187.62,-228.04C215.63,-235.75 242,-243 242,-243 242,-243 300,-308 300,-308 300,-308 321.2,-313.58 345.9,-320.09"/>
<polygon fill="black" stroke="black" points="345.55,-322.53 352.94,-321.94 346.79,-317.79 345.55,-322.53"/>
</g>
<!-- google_compute_subnetwork.main -->
<g id="node8" class="node">
<title>google_compute_subnetwork.main</title>
<polygon fill="none" stroke="black" points="516.5,-293 328.5,-293 328.5,-257 516.5,-257 516.5,-293"/>
<text text-anchor="middle" x="422.5" y="-272.5" font-family="sans-serif" font-size="10.00">google_compute_subnetwork.main</text>
</g>
<!-- google_compute_instance.web&#45;&gt;google_compute_subnetwork.main -->
<g id="edge4" class="edge">
<title>google_compute_instance.web&#45;&gt;google_compute_subnetwork.main</title>
<path fill="none" stroke="black" d="M204.63,-227.93C244,-236.48 291.16,-246.71 331.44,-255.45"/>
<polygon fill="black" stroke="black" points="331,-257.87 338.36,-256.96 332.04,-253.08 331,-257.87"/>
</g>
<!-- google_project_iam_member.vm -->
<g id="node12" class="node">
<title>google_project_iam_member.vm</title>
<polygon fill="none" stroke="black" points="511,-228 334,-228 334,-192 511,-192 511,-228"/>
<text text-anchor="middle" x="422.5" y="-207.5" font-family="sans-serif" font-size="10.00">google_project_iam_member.vm</text>
</g>
<!-- google_compute_instance.web&#45;&gt;google_project_iam_member.vm -->
<g id="edge5" class="edge">
<title>google_compute_instance.web&#45;&gt;google_project_iam_member.vm</title>
<path fill="none" stroke="black" d="M204.63,-210C242.45,-210 287.46,-210 326.66,-210"/>
<polygon fill="black" stroke="black" points="326.9,-212.45 333.9,-210 326.9,-207.55 326.9,-212.45"/>
</g>
<!-- google_storage_bucket_iam_member.vm_read -->
<g id="node16" class="node">
<title>google_storage_bucket_iam_member.vm_read</title>
<polygon fill="none" stroke="black" points="545,-163 300,-163 300,-127 545,-127 545,-163"/>
<text text-anchor="middle" x="422.5" y="-142.5" font-family="sans-serif" font-size="10.00">google_storage_bucket_iam_member.vm_read</text>
</g>
<!-- google_compute_instance.web&#45;&gt;google_storage_bucket_iam_member.vm_read -->
<g id="edge6" class="edge">
<title>google_compute_instance.web&#45;&gt;google_storage_bucket_iam_member.vm_read</title>
<path fill="none" stroke="black" d="M204.63,-192.07C244,-183.52 291.16,-173.29 331.44,-164.55"/>
<polygon fill="black" stroke="black" points="332.04,-166.92 338.36,-163.04 331,-162.13 332.04,-166.92"/>
</g>
<!-- google_storage_bucket_object.ansible -->
<g id="node17" class="node">
<title>google_storage_bucket_object.ansible</title>
<polygon fill="none" stroke="black" points="524,-67 321,-67 321,-31 524,-31 524,-67"/>
<text text-anchor="middle" x="422.5" y="-46.5" font-family="sans-serif" font-size="10.00">google_storage_bucket_object.ansible</text>
</g>
<!-- google_compute_instance.web&#45;&gt;google_storage_bucket_object.ansible -->
<g id="edge7" class="edge">
<title>google_compute_instance.web&#45;&gt;google_storage_bucket_object.ansible</title>
<path fill="none" stroke="black" d="M155.06,-191.98C206.54,-163.93 300,-113 300,-113 300,-113 345.28,-89.15 380.55,-70.57"/>
<polygon fill="black" stroke="black" points="381.96,-72.6 387.01,-67.17 379.67,-68.26 381.96,-72.6"/>
</g>
<!-- google_project_service.required -->
<g id="node13" class="node">
<title>google_project_service.required</title>
<polygon fill="none" stroke="black" points="1268,-133 1095,-133 1095,-97 1268,-97 1268,-133"/>
<text text-anchor="middle" x="1181.5" y="-112.5" font-family="sans-serif" font-size="10.00">google_project_service.required</text>
</g>
<!-- google_compute_network.vpc&#45;&gt;google_project_service.required -->
<g id="edge8" class="edge">
<title>google_compute_network.vpc&#45;&gt;google_project_service.required</title>
<path fill="none" stroke="black" d="M1037.05,-136.13C1053.51,-133.71 1070.96,-131.14 1087.81,-128.66"/>
<polygon fill="black" stroke="black" points="1088.42,-131.04 1094.99,-127.6 1087.71,-126.19 1088.42,-131.04"/>
</g>
<!-- google_compute_router.nat -->
<g id="node6" class="node">
<title>google_compute_router.nat</title>
<polygon fill="none" stroke="black" points="784.5,-355 634.5,-355 634.5,-319 784.5,-319 784.5,-355"/>
<text text-anchor="middle" x="709.5" y="-334.5" font-family="sans-serif" font-size="10.00">google_compute_router.nat</text>
</g>
<!-- google_compute_router.nat&#45;&gt;google_compute_network.vpc -->
<g id="edge9" class="edge">
<title>google_compute_router.nat&#45;&gt;google_compute_network.vpc</title>
<path fill="none" stroke="black" d="M758,-318.99C786.01,-308.37 816,-297 816,-297 816,-297 893.74,-213.36 932.74,-171.41"/>
<polygon fill="black" stroke="black" points="934.55,-173.07 937.52,-166.27 930.96,-169.73 934.55,-173.07"/>
</g>
<!-- google_compute_router_nat.nat&#45;&gt;google_compute_address.nat_egress -->
<g id="edge10" class="edge">
<title>google_compute_router_nat.nat&#45;&gt;google_compute_address.nat_egress</title>
<path fill="none" stroke="black" d="M506.32,-358.02C541.45,-365.66 582.48,-374.59 618.37,-382.39"/>
<polygon fill="black" stroke="black" points="618.12,-384.84 625.48,-383.94 619.16,-380.06 618.12,-384.84"/>
</g>
<!-- google_compute_router_nat.nat&#45;&gt;google_compute_router.nat -->
<g id="edge11" class="edge">
<title>google_compute_router_nat.nat&#45;&gt;google_compute_router.nat</title>
<path fill="none" stroke="black" d="M508.62,-339.1C546.14,-338.71 590.03,-338.25 627.11,-337.86"/>
<polygon fill="black" stroke="black" points="627.46,-340.3 634.44,-337.78 627.41,-335.4 627.46,-340.3"/>
</g>
<!-- google_compute_subnetwork.main&#45;&gt;google_compute_network.vpc -->
<g id="edge12" class="edge">
<title>google_compute_subnetwork.main&#45;&gt;google_compute_network.vpc</title>
<path fill="none" stroke="black" d="M516.52,-268.13C632.58,-259.55 816,-246 816,-246 816,-246 882.06,-199.26 922.94,-170.33"/>
<polygon fill="black" stroke="black" points="924.47,-172.25 928.77,-166.2 921.64,-168.25 924.47,-172.25"/>
</g>
<!-- google_project_iam_member.compute_viewer -->
<g id="node9" class="node">
<title>google_project_iam_member.compute_viewer</title>
<polygon fill="none" stroke="black" points="242,-293 0,-293 0,-257 242,-257 242,-293"/>
<text text-anchor="middle" x="121" y="-272.5" font-family="sans-serif" font-size="10.00">google_project_iam_member.compute_viewer</text>
</g>
<!-- google_project_iam_member.iap_tunnel -->
<g id="node10" class="node">
<title>google_project_iam_member.iap_tunnel</title>
<polygon fill="none" stroke="black" points="227,-358 15,-358 15,-322 227,-322 227,-358"/>
<text text-anchor="middle" x="121" y="-337.5" font-family="sans-serif" font-size="10.00">google_project_iam_member.iap_tunnel</text>
</g>
<!-- google_project_iam_member.os_login -->
<g id="node11" class="node">
<title>google_project_iam_member.os_login</title>
<polygon fill="none" stroke="black" points="222,-423 20,-423 20,-387 222,-387 222,-423"/>
<text text-anchor="middle" x="121" y="-402.5" font-family="sans-serif" font-size="10.00">google_project_iam_member.os_login</text>
</g>
<!-- google_service_account.vm -->
<g id="node14" class="node">
<title>google_service_account.vm</title>
<polygon fill="none" stroke="black" points="785.5,-231 633.5,-231 633.5,-195 785.5,-195 785.5,-231"/>
<text text-anchor="middle" x="709.5" y="-210.5" font-family="sans-serif" font-size="10.00">google_service_account.vm</text>
</g>
<!-- google_project_iam_member.vm&#45;&gt;google_service_account.vm -->
<g id="edge13" class="edge">
<title>google_project_iam_member.vm&#45;&gt;google_service_account.vm</title>
<path fill="none" stroke="black" d="M511.33,-210.92C547.98,-211.31 590.31,-211.76 626.34,-212.14"/>
<polygon fill="black" stroke="black" points="626.43,-214.59 633.45,-212.21 626.48,-209.69 626.43,-214.59"/>
</g>
<!-- google_storage_bucket.ansible -->
<g id="node15" class="node">
<title>google_storage_bucket.ansible</title>
<polygon fill="none" stroke="black" points="793,-36 626,-36 626,0 793,0 793,-36"/>
<text text-anchor="middle" x="709.5" y="-15.5" font-family="sans-serif" font-size="10.00">google_storage_bucket.ansible</text>
</g>
<!-- google_storage_bucket.ansible&#45;&gt;google_project_service.required -->
<g id="edge14" class="edge">
<title>google_storage_bucket.ansible&#45;&gt;google_project_service.required</title>
<path fill="none" stroke="black" d="M793.17,-35.06C875.63,-52.08 1002.03,-78.17 1087.83,-95.87"/>
<polygon fill="black" stroke="black" points="1087.36,-98.28 1094.71,-97.29 1088.35,-93.48 1087.36,-98.28"/>
</g>
<!-- google_storage_bucket_iam_member.vm_read&#45;&gt;google_service_account.vm -->
<g id="edge15" class="edge">
<title>google_storage_bucket_iam_member.vm_read&#45;&gt;google_service_account.vm</title>
<path fill="none" stroke="black" d="M499.13,-163.04C538.25,-172.38 586.08,-183.79 626.14,-193.35"/>
<polygon fill="black" stroke="black" points="625.64,-195.75 633.01,-194.99 626.77,-190.98 625.64,-195.75"/>
</g>
<!-- google_storage_bucket_iam_member.vm_read&#45;&gt;google_storage_bucket.ansible -->
<g id="edge16" class="edge">
<title>google_storage_bucket_iam_member.vm_read&#45;&gt;google_storage_bucket.ansible</title>
<path fill="none" stroke="black" d="M458.32,-126.95C494.22,-108.33 545,-82 545,-82 545,-82 603,-51 603,-51 603,-51 622.04,-45.04 643.94,-38.19"/>
<polygon fill="black" stroke="black" points="644.86,-40.47 650.81,-36.04 643.4,-35.8 644.86,-40.47"/>
</g>
<!-- google_storage_bucket_object.ansible&#45;&gt;google_storage_bucket.ansible -->
<g id="edge17" class="edge">
<title>google_storage_bucket_object.ansible&#45;&gt;google_storage_bucket.ansible</title>
<path fill="none" stroke="black" d="M524.38,-38.03C555.07,-34.69 588.58,-31.04 618.5,-27.79"/>
<polygon fill="black" stroke="black" points="618.93,-30.21 625.62,-27.02 618.4,-25.34 618.93,-30.21"/>
</g>
</g>
</svg>
