<?xml version="1.0" encoding="UTF-8" standalone="no"?>
<!DOCTYPE svg PUBLIC "-//W3C//DTD SVG 1.1//EN"
 "http://www.w3.org/Graphics/SVG/1.1/DTD/svg11.dtd">
<!-- Generated by graphviz version 2.43.0 (0)
 -->
<!-- Title: G Pages: 1 -->
<svg width="2772pt" height="525pt"
 viewBox="0.00 0.00 2772.00 525.00" xmlns="http://www.w3.org/2000/svg" xmlns:xlink="http://www.w3.org/1999/xlink">
<g id="graph0" class="graph" transform="scale(1 1) rotate(0) translate(4 521)">
<title>G</title>
<polygon fill="white" stroke="transparent" points="-4,4 -4,-521 2768,-521 2768,4 -4,4"/>
<!-- data.google_compute_image.debian -->
<g id="node1" class="node">
<title>data.google_compute_image.debian</title>
<polygon fill="none" stroke="black" points="1933.5,-198 1739.5,-198 1739.5,-162 1933.5,-162 1933.5,-198"/>
<text text-anchor="middle" x="1836.5" y="-177.5" font-family="sans-serif" font-size="10.00">data.google_compute_image.debian</text>
</g>
<!-- google_compute_address.be -->
<g id="node2" class="node">
<title>google_compute_address.be</title>
<polygon fill="none" stroke="black" points="1914.5,-263 1758.5,-263 1758.5,-227 1914.5,-227 1914.5,-263"/>
<text text-anchor="middle" x="1836.5" y="-242.5" font-family="sans-serif" font-size="10.00">google_compute_address.be</text>
</g>
<!-- google_compute_subnetwork.workload -->
<g id="node21" class="node">
<title>google_compute_subnetwork.workload</title>
<polygon fill="none" stroke="black" points="2222,-263 2014,-263 2014,-227 2222,-227 2222,-263"/>
<text text-anchor="middle" x="2118" y="-242.5" font-family="sans-serif" font-size="10.00">google_compute_subnetwork.workload</text>
</g>
<!-- google_compute_address.be&#45;&gt;google_compute_subnetwork.workload -->
<g id="edge1" class="edge">
<title>google_compute_address.be&#45;&gt;google_compute_subnetwork.workload</title>
<path fill="none" stroke="black" d="M1914.61,-245C1943.04,-245 1975.82,-245 2006.61,-245"/>
<polygon fill="black" stroke="black" points="2006.97,-247.45 2013.97,-245 2006.97,-242.55 2006.97,-247.45"/>
</g>
<!-- google_compute_address.vip -->
<g id="node3" class="node">
<title>google_compute_address.vip</title>
<polygon fill="none" stroke="black" points="455,-178 296,-178 296,-142 455,-142 455,-178"/>
<text text-anchor="middle" x="375.5" y="-157.5" font-family="sans-serif" font-size="10.00">google_compute_address.vip</text>
</g>
<!-- google_compute_firewall.allow_health_check -->
<g id="node4" class="node">
<title>google_compute_firewall.allow_health_check</title>
<polygon fill="none" stroke="black" points="2237,-452 1999,-452 1999,-416 2237,-416 2237,-452"/>
<text text-anchor="middle" x="2118" y="-431.5" font-family="sans-serif" font-size="10.00">google_compute_firewall.allow_health_check</text>
</g>
<!-- google_compute_network.vpc -->
<g id="node10" class="node">
<title>google_compute_network.vpc</title>
<polygon fill="none" stroke="black" points="2495.5,-359 2332.5,-359 2332.5,-323 2495.5,-323 2495.5,-359"/>
<text text-anchor="middle" x="2414" y="-338.5" font-family="sans-serif" font-size="10.00">google_compute_network.vpc</text>
</g>
<!-- google_compute_firewall.allow_health_check&#45;&gt;google_compute_network.vpc -->
<g id="edge2" class="edge">
<title>google_compute_firewall.allow_health_check&#45;&gt;google_compute_network.vpc</title>
<path fill="none" stroke="black" d="M2172.13,-415.99C2203.45,-405.37 2237,-394 2237,-394 2237,-394 2295,-374 2295,-374 2295,-374 2316.66,-367.94 2341.43,-361.02"/>
<polygon fill="black" stroke="black" points="2342.39,-363.29 2348.48,-359.04 2341.07,-358.57 2342.39,-363.29"/>
</g>
<!-- google_compute_firewall.allow_iap_ssh -->
<g id="node5" class="node">
<title>google_compute_firewall.allow_iap_ssh</title>
<polygon fill="none" stroke="black" points="2223,-517 2013,-517 2013,-481 2223,-481 2223,-517"/>
<text text-anchor="middle" x="2118" y="-496.5" font-family="sans-serif" font-size="10.00">google_compute_firewall.allow_iap_ssh</text>
</g>
<!-- google_compute_firewall.allow_iap_ssh&#45;&gt;google_compute_network.vpc -->
<g id="edge3" class="edge">
<title>google_compute_firewall.allow_iap_ssh&#45;&gt;google_compute_network.vpc</title>
<path fill="none" stroke="black" d="M2185.59,-480.94C2212.35,-473.68 2237,-467 2237,-467 2237,-467 2295,-374 2295,-374 2295,-374 2316.66,-367.94 2341.43,-361.02"/>
<polygon fill="black" stroke="black" points="2342.39,-363.29 2348.48,-359.04 2341.07,-358.57 2342.39,-363.29"/>
</g>
<!-- google_compute_firewall.allow_proxies -->
<g id="node6" class="node">
<title>google_compute_firewall.allow_proxies</title>
<polygon fill="none" stroke="black" points="1941,-393 1732,-393 1732,-357 1941,-357 1941,-393"/>
<text text-anchor="middle" x="1836.5" y="-372.5" font-family="sans-serif" font-size="10.00">google_compute_firewall.allow_proxies</text>
</g>
<!-- google_compute_firewall.allow_proxies&#45;&gt;google_compute_network.vpc -->
<g id="edge4" class="edge">
<title>google_compute_firewall.allow_proxies&#45;&gt;google_compute_network.vpc</title>
<path fill="none" stroke="black" d="M1941.05,-368.88C2050.67,-362.41 2221.8,-352.3 2325.08,-346.19"/>
<polygon fill="black" stroke="black" points="2325.25,-348.64 2332.09,-345.78 2324.96,-343.75 2325.25,-348.64"/>
</g>
<!-- google_compute_forwarding_rule.fr -->
<g id="node7" class="node">
<title>google_compute_forwarding_rule.fr</title>
<polygon fill="none" stroke="black" points="190,-113 0,-113 0,-77 190,-77 190,-113"/>
<text text-anchor="middle" x="95" y="-92.5" font-family="sans-serif" font-size="10.00">google_compute_forwarding_rule.fr</text>
</g>
<!-- google_compute_forwarding_rule.fr&#45;&gt;google_compute_address.vip -->
<g id="edge5" class="edge">
<title>google_compute_forwarding_rule.fr&#45;&gt;google_compute_address.vip</title>
<path fill="none" stroke="black" d="M173.21,-113.02C209.58,-121.51 253.05,-131.65 290.27,-140.34"/>
<polygon fill="black" stroke="black" points="289.77,-142.74 297.14,-141.95 290.88,-137.97 289.77,-142.74"/>
</g>
<!-- google_compute_region_target_http_proxy.proxy -->
<g id="node16" class="node">
<title>google_compute_region_target_http_proxy.proxy</title>
<polygon fill="none" stroke="black" points="503,-113 248,-113 248,-77 503,-77 503,-113"/>
<text text-anchor="middle" x="375.5" y="-92.5" font-family="sans-serif" font-size="10.00">google_compute_region_target_http_proxy.proxy</text>
</g>
<!-- google_compute_forwarding_rule.fr&#45;&gt;google_compute_region_target_http_proxy.proxy -->
<g id="edge6" class="edge">
<title>google_compute_forwarding_rule.fr&#45;&gt;google_compute_region_target_http_proxy.proxy</title>
<path fill="none" stroke="black" d="M190.29,-95C206.44,-95 223.5,-95 240.46,-95"/>
<polygon fill="black" stroke="black" points="240.72,-97.45 247.72,-95 240.72,-92.55 240.72,-97.45"/>
</g>
<!-- google_compute_subnetwork.proxy_only -->
<g id="node20" class="node">
<title>google_compute_subnetwork.proxy_only</title>
<polygon fill="none" stroke="black" points="778,-49 561,-49 561,-13 778,-13 778,-49"/>
<text text-anchor="middle" x="669.5" y="-28.5" font-family="sans-serif" font-size="10.00">google_compute_subnetwork.proxy_only</text>
</g>
<!-- google_compute_forwarding_rule.fr&#45;&gt;google_compute_subnetwork.proxy_only -->
<g id="edge7" class="edge">
<title>google_compute_forwarding_rule.fr&#45;&gt;google_compute_subnetwork.proxy_only</title>
<path fill="none" stroke="black" d="M181.77,-76.94C216.25,-69.68 248,-63 248,-63 248,-63 429.25,-49.21 553.76,-39.73"/>
<polygon fill="black" stroke="black" points="553.96,-42.17 560.76,-39.2 553.59,-37.29 553.96,-42.17"/>
</g>
<!-- google_compute_instance.be -->
<g id="node8" class="node">
<title>google_compute_instance.be</title>
<polygon fill="none" stroke="black" points="1631,-269 1472,-269 1472,-233 1631,-233 1631,-269"/>
<text text-anchor="middle" x="1551.5" y="-248.5" font-family="sans-serif" font-size="10.00">google_compute_instance.be</text>
</g>
<!-- google_compute_instance.be&#45;&gt;data.google_compute_image.debian -->
<g id="edge8" class="edge">
<title>google_compute_instance.be&#45;&gt;data.google_compute_image.debian</title>
<path fill="none" stroke="black" d="M1624.28,-232.99C1664.61,-222.87 1715.01,-210.23 1756.47,-199.83"/>
<polygon fill="black" stroke="black" points="1757.11,-202.19 1763.31,-198.11 1755.92,-197.44 1757.11,-202.19"/>
</g>
<!-- google_compute_instance.be&#45;&gt;google_compute_address.be -->
<g id="edge9" class="edge">
<title>google_compute_instance.be&#45;&gt;google_compute_address.be</title>
<path fill="none" stroke="black" d="M1631.33,-249.33C1668.59,-248.54 1713.12,-247.59 1751.06,-246.79"/>
<polygon fill="black" stroke="black" points="1751.12,-249.24 1758.07,-246.64 1751.02,-244.34 1751.12,-249.24"/>
</g>
<!-- google_compute_instance.be&#45;&gt;google_compute_firewall.allow_health_check -->
<g id="edge10" class="edge">
<title>google_compute_instance.be&#45;&gt;google_compute_firewall.allow_health_check</title>
<path fill="none" stroke="black" d="M1573.09,-269.01C1620.24,-310.25 1732,-408 1732,-408 1732,-408 1879.46,-417.96 1991.86,-425.55"/>
<polygon fill="black" stroke="black" points="1991.72,-428 1998.87,-426.02 1992.05,-423.11 1991.72,-428"/>
</g>
<!-- google_compute_instance.be&#45;&gt;google_compute_firewall.allow_proxies -->
<g id="edge11" class="edge">
<title>google_compute_instance.be&#45;&gt;google_compute_firewall.allow_proxies</title>
<path fill="none" stroke="black" d="M1587.96,-269.18C1640.28,-295.99 1732,-343 1732,-343 1732,-343 1749.6,-348.44 1770.29,-354.84"/>
<polygon fill="black" stroke="black" points="1769.68,-357.22 1777.1,-356.94 1771.13,-352.53 1769.68,-357.22"/>
</g>
<!-- google_compute_router_nat.nat -->
<g id="node19" class="node">
<title>google_compute_router_nat.nat</title>
<polygon fill="none" stroke="black" points="1922.5,-328 1750.5,-328 1750.5,-292 1922.5,-292 1922.5,-328"/>
<text text-anchor="middle" x="1836.5" y="-307.5" font-family="sans-serif" font-size="10.00">google_compute_router_nat.nat</text>
</g>
<!-- google_compute_instance.be&#45;&gt;google_compute_router_nat.nat -->
<g id="edge12" class="edge">
<title>google_compute_instance.be&#45;&gt;google_compute_router_nat.nat</title>
<path fill="none" stroke="black" d="M1631.33,-267.43C1666.06,-274.68 1707.1,-283.23 1743.24,-290.77"/>
<polygon fill="black" stroke="black" points="1743.05,-293.23 1750.4,-292.26 1744.05,-288.43 1743.05,-293.23"/>
</g>
<!-- google_compute_instance.deny_client -->
<g id="node9" class="node">
<title>google_compute_instance.deny_client</title>
<polygon fill="none" stroke="black" points="1653,-191 1450,-191 1450,-155 1653,-155 1653,-191"/>
<text text-anchor="middle" x="1551.5" y="-170.5" font-family="sans-serif" font-size="10.00">google_compute_instance.deny_client</text>
</g>
<!-- google_compute_instance.deny_client&#45;&gt;data.google_compute_image.debian -->
<g id="edge13" class="edge">
<title>google_compute_instance.deny_client&#45;&gt;data.google_compute_image.debian</title>
<path fill="none" stroke="black" d="M1653.07,-175.49C1678.63,-176.12 1706.14,-176.8 1731.85,-177.44"/>
<polygon fill="black" stroke="black" points="1731.99,-179.89 1739.05,-177.61 1732.11,-174.99 1731.99,-179.89"/>
</g>
<!-- google_compute_instance.deny_client&#45;&gt;google_compute_subnetwork.workload -->
<g id="edge14" class="edge">
<title>google_compute_instance.deny_client&#45;&gt;google_compute_subnetwork.workload</title>
<path fill="none" stroke="black" d="M1653.01,-159C1694.02,-153.29 1732,-148 1732,-148 1732,-148 1941,-148 1941,-148 1941,-148 2026.33,-195.03 2078.16,-223.59"/>
<polygon fill="black" stroke="black" points="2077,-225.75 2084.31,-226.98 2079.36,-221.46 2077,-225.75"/>
</g>
<!-- google_project_service.required -->
<g id="node24" class="node">
<title>google_project_service.required</title>
<polygon fill="none" stroke="black" points="2764,-424 2591,-424 2591,-388 2764,-388 2764,-424"/>
<text text-anchor="middle" x="2677.5" y="-403.5" font-family="sans-serif" font-size="10.00">google_project_service.required</text>
</g>
<!-- google_compute_network.vpc&#45;&gt;google_project_service.required -->
<g id="edge15" class="edge">
<title>google_compute_network.vpc&#45;&gt;google_project_service.required</title>
<path fill="none" stroke="black" d="M2487.5,-359.02C2521.5,-367.47 2562.12,-377.57 2596.97,-386.23"/>
<polygon fill="black" stroke="black" points="2596.48,-388.63 2603.86,-387.95 2597.66,-383.88 2596.48,-388.63"/>
</g>
<!-- google_compute_network_endpoint.ep -->
<g id="node11" class="node">
<title>google_compute_network_endpoint.ep</title>
<polygon fill="none" stroke="black" points="1352.5,-145 1146.5,-145 1146.5,-109 1352.5,-109 1352.5,-145"/>
<text text-anchor="middle" x="1249.5" y="-124.5" font-family="sans-serif" font-size="10.00">google_compute_network_endpoint.ep</text>
</g>
<!-- google_compute_network_endpoint.ep&#45;&gt;google_compute_instance.be -->
<g id="edge16" class="edge">
<title>google_compute_network_endpoint.ep&#45;&gt;google_compute_instance.be</title>
<path fill="none" stroke="black" d="M1316.39,-145.04C1344.52,-152.75 1371,-160 1371,-160 1371,-160 1429,-206 1429,-206 1429,-206 1462.97,-218.58 1494.99,-230.44"/>
<polygon fill="black" stroke="black" points="1494.37,-232.82 1501.78,-232.96 1496.07,-228.23 1494.37,-232.82"/>
</g>
<!-- google_compute_network_endpoint_group.neg -->
<g id="node12" class="node">
<title>google_compute_network_endpoint_group.neg</title>
<polygon fill="none" stroke="black" points="1674,-100 1429,-100 1429,-64 1674,-64 1674,-100"/>
<text text-anchor="middle" x="1551.5" y="-79.5" font-family="sans-serif" font-size="10.00">google_compute_network_endpoint_group.neg</text>
</g>
<!-- google_compute_network_endpoint.ep&#45;&gt;google_compute_network_endpoint_group.neg -->
<g id="edge17" class="edge">
<title>google_compute_network_endpoint.ep&#45;&gt;google_compute_network_endpoint_group.neg</title>
<path fill="none" stroke="black" d="M1352.9,-111.64C1375.61,-108.23 1399.95,-104.58 1423.51,-101.05"/>
<polygon fill="black" stroke="black" points="1423.9,-103.47 1430.46,-100.01 1423.17,-98.62 1423.9,-103.47"/>
</g>
<!-- google_compute_network_endpoint_group.neg&#45;&gt;google_compute_subnetwork.workload -->
<g id="edge18" class="edge">
<title>google_compute_network_endpoint_group.neg&#45;&gt;google_compute_subnetwork.workload</title>
<path fill="none" stroke="black" d="M1671.17,-100.02C1785.42,-117.37 1941,-141 1941,-141 1941,-141 2028.65,-192.79 2080.24,-223.28"/>
<polygon fill="black" stroke="black" points="2079.07,-225.43 2086.34,-226.88 2081.56,-221.21 2079.07,-225.43"/>
</g>
<!-- google_compute_region_backend_service.bs -->
<g id="node13" class="node">
<title>google_compute_region_backend_service.bs</title>
<polygon fill="none" stroke="black" points="1070,-137 836,-137 836,-101 1070,-101 1070,-137"/>
<text text-anchor="middle" x="953" y="-116.5" font-family="sans-serif" font-size="10.00">google_compute_region_backend_service.bs</text>
</g>
<!-- google_compute_region_backend_service.bs&#45;&gt;google_compute_network_endpoint.ep -->
<g id="edge19" class="edge">
<title>google_compute_region_backend_service.bs&#45;&gt;google_compute_network_endpoint.ep</title>
<path fill="none" stroke="black" d="M1070.39,-122.16C1093.03,-122.78 1116.68,-123.42 1139.07,-124.03"/>
<polygon fill="black" stroke="black" points="1139.23,-126.48 1146.3,-124.22 1139.37,-121.58 1139.23,-126.48"/>
</g>
<!-- google_compute_region_health_check.hc -->
<g id="node14" class="node">
<title>google_compute_region_health_check.hc</title>
<polygon fill="none" stroke="black" points="1358.5,-80 1140.5,-80 1140.5,-44 1358.5,-44 1358.5,-80"/>
<text text-anchor="middle" x="1249.5" y="-59.5" font-family="sans-serif" font-size="10.00">google_compute_region_health_check.hc</text>
</g>
<!-- google_compute_region_backend_service.bs&#45;&gt;google_compute_region_health_check.hc -->
<g id="edge20" class="edge">
<title>google_compute_region_backend_service.bs&#45;&gt;google_compute_region_health_check.hc</title>
<path fill="none" stroke="black" d="M1047.18,-100.96C1079.43,-94.72 1115.7,-87.7 1148.48,-81.36"/>
<polygon fill="black" stroke="black" points="1149.01,-83.75 1155.42,-80.02 1148.08,-78.94 1149.01,-83.75"/>
</g>
<!-- google_compute_region_security_policy.armor -->
<g id="node15" class="node">
<title>google_compute_region_security_policy.armor</title>
<polygon fill="none" stroke="black" points="1371,-210 1128,-210 1128,-174 1371,-174 1371,-210"/>
<text text-anchor="middle" x="1249.5" y="-189.5" font-family="sans-serif" font-size="10.00">google_compute_region_security_policy.armor</text>
</g>
<!-- google_compute_region_backend_service.bs&#45;&gt;google_compute_region_security_policy.armor -->
<g id="edge21" class="edge">
<title>google_compute_region_backend_service.bs&#45;&gt;google_compute_region_security_policy.armor</title>
<path fill="none" stroke="black" d="M1026.8,-137.04C1069.89,-147.73 1124.52,-161.27 1168.77,-172.24"/>
<polygon fill="black" stroke="black" points="1168.39,-174.67 1175.77,-173.97 1169.57,-169.91 1168.39,-174.67"/>
</g>
<!-- google_compute_region_url_map.urlmap -->
<g id="node17" class="node">
<title>google_compute_region_url_map.urlmap</title>
<polygon fill="none" stroke="black" points="777.5,-129 561.5,-129 561.5,-93 777.5,-93 777.5,-129"/>
<text text-anchor="middle" x="669.5" y="-108.5" font-family="sans-serif" font-size="10.00">google_compute_region_url_map.urlmap</text>
</g>
<!-- google_compute_region_target_http_proxy.proxy&#45;&gt;google_compute_region_url_map.urlmap -->
<g id="edge22" class="edge">
<title>google_compute_region_target_http_proxy.proxy&#45;&gt;google_compute_region_url_map.urlmap</title>
<path fill="none" stroke="black" d="M503.3,-101.95C520.27,-102.88 537.59,-103.83 554.33,-104.74"/>
<polygon fill="black" stroke="black" points="554.34,-107.2 561.46,-105.13 554.6,-102.31 554.34,-107.2"/>
</g>
<!-- google_compute_region_url_map.urlmap&#45;&gt;google_compute_region_backend_service.bs -->
<g id="edge23" class="edge">
<title>google_compute_region_url_map.urlmap&#45;&gt;google_compute_region_backend_service.bs</title>
<path fill="none" stroke="black" d="M777.73,-114.05C794.31,-114.52 811.56,-115.01 828.47,-115.49"/>
<polygon fill="black" stroke="black" points="828.62,-117.94 835.69,-115.69 828.76,-113.05 828.62,-117.94"/>
</g>
<!-- google_compute_router.router -->
<g id="node18" class="node">
<title>google_compute_router.router</title>
<polygon fill="none" stroke="black" points="2200,-328 2036,-328 2036,-292 2200,-292 2200,-328"/>
<text text-anchor="middle" x="2118" y="-307.5" font-family="sans-serif" font-size="10.00">google_compute_router.router</text>
</g>
<!-- google_compute_router.router&#45;&gt;google_compute_network.vpc -->
<g id="edge24" class="edge">
<title>google_compute_router.router&#45;&gt;google_compute_network.vpc</title>
<path fill="none" stroke="black" d="M2200.12,-318.55C2238.92,-322.64 2285.44,-327.55 2325.09,-331.73"/>
<polygon fill="black" stroke="black" points="2325.19,-334.2 2332.4,-332.5 2325.7,-329.33 2325.19,-334.2"/>
</g>
<!-- google_compute_router_nat.nat&#45;&gt;google_compute_router.router -->
<g id="edge25" class="edge">
<title>google_compute_router_nat.nat&#45;&gt;google_compute_router.router</title>
<path fill="none" stroke="black" d="M1922.88,-310C1956.45,-310 1994.98,-310 2028.82,-310"/>
<polygon fill="black" stroke="black" points="2028.97,-312.45 2035.97,-310 2028.97,-307.55 2028.97,-312.45"/>
</g>
<!-- google_compute_router_nat.nat&#45;&gt;google_compute_subnetwork.workload -->
<g id="edge26" class="edge">
<title>google_compute_router_nat.nat&#45;&gt;google_compute_subnetwork.workload</title>
<path fill="none" stroke="black" d="M1914.99,-291.98C1951.49,-283.49 1995.11,-273.35 2032.47,-264.66"/>
<polygon fill="black" stroke="black" points="2033.1,-267.03 2039.36,-263.05 2031.99,-262.25 2033.1,-267.03"/>
</g>
<!-- google_compute_subnetwork.proxy_only&#45;&gt;google_compute_network.vpc -->
<g id="edge27" class="edge">
<title>google_compute_subnetwork.proxy_only&#45;&gt;google_compute_network.vpc</title>
<path fill="none" stroke="black" d="M778.2,-25.22C945.42,-16.25 1248.5,0 1248.5,0 1248.5,0 1248.5,0 1837.5,0 1837.5,0 2237,-213 2237,-213 2237,-213 2331.78,-281.93 2382.23,-318.62"/>
<polygon fill="black" stroke="black" points="2381.05,-320.8 2388.16,-322.93 2383.94,-316.83 2381.05,-320.8"/>
</g>
<!-- google_compute_subnetwork.workload&#45;&gt;google_compute_network.vpc -->
<g id="edge28" class="edge">
<title>google_compute_subnetwork.workload&#45;&gt;google_compute_network.vpc</title>
<path fill="none" stroke="black" d="M2183.52,-263.04C2211.07,-270.75 2237,-278 2237,-278 2237,-278 2304.37,-302.12 2355.75,-320.51"/>
<polygon fill="black" stroke="black" points="2355.15,-322.89 2362.57,-322.95 2356.8,-318.28 2355.15,-322.89"/>
</g>
<!-- google_project_iam_member.iap_tunnel -->
<g id="node22" class="node">
<title>google_project_iam_member.iap_tunnel</title>
<polygon fill="none" stroke="black" points="2520,-489 2308,-489 2308,-453 2520,-453 2520,-489"/>
<text text-anchor="middle" x="2414" y="-468.5" font-family="sans-serif" font-size="10.00">google_project_iam_member.iap_tunnel</text>
</g>
<!-- google_project_iam_member.iap_tunnel&#45;&gt;google_project_service.required -->
<g id="edge29" class="edge">
<title>google_project_iam_member.iap_tunnel&#45;&gt;google_project_service.required</title>
<path fill="none" stroke="black" d="M2487.5,-452.98C2521.5,-444.53 2562.12,-434.43 2596.97,-425.77"/>
<polygon fill="black" stroke="black" points="2597.66,-428.12 2603.86,-424.05 2596.48,-423.37 2597.66,-428.12"/>
</g>
<!-- google_project_iam_member.os_admin_login -->
<g id="node23" class="node">
<title>google_project_iam_member.os_admin_login</title>
<polygon fill="none" stroke="black" points="2533,-424 2295,-424 2295,-388 2533,-388 2533,-424"/>
<text text-anchor="middle" x="2414" y="-403.5" font-family="sans-serif" font-size="10.00">google_project_iam_member.os_admin_login</text>
</g>
<!-- google_project_iam_member.os_admin_login&#45;&gt;google_project_service.required -->
<g id="edge30" class="edge">
<title>google_project_iam_member.os_admin_login&#45;&gt;google_project_service.required</title>
<path fill="none" stroke="black" d="M2533.13,-406C2550.03,-406 2567.21,-406 2583.54,-406"/>
<polygon fill="black" stroke="black" points="2583.98,-408.45 2590.98,-406 2583.98,-403.55 2583.98,-408.45"/>
</g>
</g>
</svg>
