<?xml version="1.0" encoding="UTF-8" standalone="no"?>
<!DOCTYPE svg PUBLIC "-//W3C//DTD SVG 1.1//EN"
 "http://www.w3.org/Graphics/SVG/1.1/DTD/svg11.dtd">
<!-- Generated by graphviz version 2.43.0 (0)
 -->
<!-- Title: G Pages: 1 -->
<svg width="883pt" height="109pt"
 viewBox="0.00 0.00 883.00 109.00" xmlns="http://www.w3.org/2000/svg" xmlns:xlink="http://www.w3.org/1999/xlink">
<g id="graph0" class="graph" transform="scale(1 1) rotate(0) translate(4 105)">
<title>G</title>
<polygon fill="white" stroke="transparent" points="-4,4 -4,-105 879,-105 879,4 -4,4"/>
<!-- google_compute_network.dns -->
<g id="node1" class="node">
<title>google_compute_network.dns</title>
<polygon fill="none" stroke="black" points="642,-101 479,-101 479,-65 642,-65 642,-101"/>
<text text-anchor="middle" x="560.5" y="-80.5" font-family="sans-serif" font-size="10.00">google_compute_network.dns</text>
</g>
<!-- google_project_service.compute -->
<g id="node4" class="node">
<title>google_project_service.compute</title>
<polygon fill="none" stroke="black" points="875,-101 700,-101 700,-65 875,-65 875,-101"/>
<text text-anchor="middle" x="787.5" y="-80.5" font-family="sans-serif" font-size="10.00">google_project_service.compute</text>
</g>
<!-- google_compute_network.dns&#45;&gt;google_project_service.compute -->
<g id="edge1" class="edge">
<title>google_compute_network.dns&#45;&gt;google_project_service.compute</title>
<path fill="none" stroke="black" d="M642.09,-83C658.53,-83 675.97,-83 692.82,-83"/>
<polygon fill="black" stroke="black" points="693,-85.45 700,-83 693,-80.55 693,-85.45"/>
</g>
<!-- google_dns_managed_zone.private -->
<g id="node2" class="node">
<title>google_dns_managed_zone.private</title>
<polygon fill="none" stroke="black" points="421,-68 232,-68 232,-32 421,-32 421,-68"/>
<text text-anchor="middle" x="326.5" y="-47.5" font-family="sans-serif" font-size="10.00">google_dns_managed_zone.private</text>
</g>
<!-- google_dns_managed_zone.private&#45;&gt;google_compute_network.dns -->
<g id="edge2" class="edge">
<title>google_dns_managed_zone.private&#45;&gt;google_compute_network.dns</title>
<path fill="none" stroke="black" d="M421.19,-63.33C437.92,-65.71 455.29,-68.18 471.84,-70.53"/>
<polygon fill="black" stroke="black" points="471.6,-72.97 478.88,-71.53 472.29,-68.12 471.6,-72.97"/>
</g>
<!-- google_project_service.dns -->
<g id="node5" class="node">
<title>google_project_service.dns</title>
<polygon fill="none" stroke="black" points="635,-36 486,-36 486,0 635,0 635,-36"/>
<text text-anchor="middle" x="560.5" y="-15.5" font-family="sans-serif" font-size="10.00">google_project_service.dns</text>
</g>
<!-- google_dns_managed_zone.private&#45;&gt;google_project_service.dns -->
<g id="edge3" class="edge">
<title>google_dns_managed_zone.private&#45;&gt;google_project_service.dns</title>
<path fill="none" stroke="black" d="M421.19,-37.08C440.18,-34.46 459.99,-31.73 478.49,-29.17"/>
<polygon fill="black" stroke="black" points="479.19,-31.55 485.79,-28.17 478.52,-26.7 479.19,-31.55"/>
</g>
<!-- google_dns_record_set.example -->
<g id="node3" class="node">
<title>google_dns_record_set.example</title>
<polygon fill="none" stroke="black" points="174,-68 0,-68 0,-32 174,-32 174,-68"/>
<text text-anchor="middle" x="87" y="-47.5" font-family="sans-serif" font-size="10.00">google_dns_record_set.example</text>
</g>
<!-- google_dns_record_set.example&#45;&gt;google_dns_managed_zone.private -->
<g id="edge4" class="edge">
<title>google_dns_record_set.example&#45;&gt;google_dns_managed_zone.private</title>
<path fill="none" stroke="black" d="M174.08,-50C190.46,-50 207.73,-50 224.53,-50"/>
<polygon fill="black" stroke="black" points="224.69,-52.45 231.69,-50 224.69,-47.55 224.69,-52.45"/>
</g>
</g>
</svg>
