<?xml version="1.0" encoding="UTF-8" standalone="no"?>
<!DOCTYPE svg PUBLIC "-//W3C//DTD SVG 1.1//EN"
 "http://www.w3.org/Graphics/SVG/1.1/DTD/svg11.dtd">
<!-- Generated by graphviz version 2.43.0 (0)
 -->
<!-- Title: G Pages: 1 -->
<svg width="1389pt" height="109pt"
 viewBox="0.00 0.00 1389.00 109.00" xmlns="http://www.w3.org/2000/svg" xmlns:xlink="http://www.w3.org/1999/xlink">
<g id="graph0" class="graph" transform="scale(1 1) rotate(0) translate(4 105)">
<title>G</title>
<polygon fill="white" stroke="transparent" points="-4,4 -4,-105 1385,-105 1385,4 -4,4"/>
<!-- google_artifact_registry_repository.app -->
<g id="node1" class="node">
<title>google_artifact_registry_repository.app</title>
<polygon fill="none" stroke="black" points="1150,-101 943,-101 943,-65 1150,-65 1150,-101"/>
<text text-anchor="middle" x="1046.5" y="-80.5" font-family="sans-serif" font-size="10.00">google_artifact_registry_repository.app</text>
</g>
<!-- google_project_service.required -->
<g id="node6" class="node">
<title>google_project_service.required</title>
<polygon fill="none" stroke="black" points="1381,-68 1208,-68 1208,-32 1381,-32 1381,-68"/>
<text text-anchor="middle" x="1294.5" y="-47.5" font-family="sans-serif" font-size="10.00">google_project_service.required</text>
</g>
<!-- google_artifact_registry_repository.app&#45;&gt;google_project_service.required -->
<g id="edge1" class="edge">
<title>google_artifact_registry_repository.app&#45;&gt;google_project_service.required</title>
<path fill="none" stroke="black" d="M1150.04,-69.24C1166.89,-66.98 1184.26,-64.65 1200.84,-62.43"/>
<polygon fill="black" stroke="black" points="1201.28,-64.84 1207.89,-61.48 1200.63,-59.99 1201.28,-64.84"/>
</g>
<!-- google_artifact_registry_repository_iam_member.run_reader -->
<g id="node2" class="node">
<title>google_artifact_registry_repository_iam_member.run_reader</title>
<polygon fill="none" stroke="black" points="885,-68 572,-68 572,-32 885,-32 885,-68"/>
<text text-anchor="middle" x="728.5" y="-47.5" font-family="sans-serif" font-size="10.00">google_artifact_registry_repository_iam_member.run_reader</text>
</g>
<!-- google_artifact_registry_repository_iam_member.run_reader&#45;&gt;google_artifact_registry_repository.app -->
<g id="edge2" class="edge">
<title>google_artifact_registry_repository_iam_member.run_reader&#45;&gt;google_artifact_registry_repository.app</title>
<path fill="none" stroke="black" d="M885.19,-66.26C902.07,-68.02 919,-69.79 935.18,-71.48"/>
<polygon fill="black" stroke="black" points="935.35,-73.96 942.56,-72.25 935.86,-69.09 935.35,-73.96"/>
</g>
<!-- google_service_account.run -->
<g id="node7" class="node">
<title>google_service_account.run</title>
<polygon fill="none" stroke="black" points="1122.5,-36 970.5,-36 970.5,0 1122.5,0 1122.5,-36"/>
<text text-anchor="middle" x="1046.5" y="-15.5" font-family="sans-serif" font-size="10.00">google_service_account.run</text>
</g>
<!-- google_artifact_registry_repository_iam_member.run_reader&#45;&gt;google_service_account.run -->
<g id="edge3" class="edge">
<title>google_artifact_registry_repository_iam_member.run_reader&#45;&gt;google_service_account.run</title>
<path fill="none" stroke="black" d="M885.19,-34.23C912.13,-31.51 939.16,-28.77 963.14,-26.34"/>
<polygon fill="black" stroke="black" points="963.44,-28.77 970.15,-25.63 962.94,-23.9 963.44,-28.77"/>
</g>
<!-- google_cloud_run_v2_service.hello -->
<g id="node3" class="node">
<title>google_cloud_run_v2_service.hello</title>
<polygon fill="none" stroke="black" points="514,-68 327,-68 327,-32 514,-32 514,-68"/>
<text text-anchor="middle" x="420.5" y="-47.5" font-family="sans-serif" font-size="10.00">google_cloud_run_v2_service.hello</text>
</g>
<!-- google_cloud_run_v2_service.hello&#45;&gt;google_artifact_registry_repository_iam_member.run_reader -->
<g id="edge4" class="edge">
<title>google_cloud_run_v2_service.hello&#45;&gt;google_artifact_registry_repository_iam_member.run_reader</title>
<path fill="none" stroke="black" d="M514.14,-50C530.15,-50 547.21,-50 564.43,-50"/>
<polygon fill="black" stroke="black" points="564.82,-52.45 571.82,-50 564.82,-47.55 564.82,-52.45"/>
</g>
<!-- google_cloud_run_v2_service_iam_member.invoker -->
<g id="node4" class="node">
<title>google_cloud_run_v2_service_iam_member.invoker</title>
<polygon fill="none" stroke="black" points="269,-101 0,-101 0,-65 269,-65 269,-101"/>
<text text-anchor="middle" x="134.5" y="-80.5" font-family="sans-serif" font-size="10.00">google_cloud_run_v2_service_iam_member.invoker</text>
</g>
<!-- google_cloud_run_v2_service_iam_member.invoker&#45;&gt;google_cloud_run_v2_service.hello -->
<g id="edge5" class="edge">
<title>google_cloud_run_v2_service_iam_member.invoker&#45;&gt;google_cloud_run_v2_service.hello</title>
<path fill="none" stroke="black" d="M269.18,-67.47C286.03,-65.51 303.03,-63.53 319.23,-61.65"/>
<polygon fill="black" stroke="black" points="319.94,-64.03 326.62,-60.79 319.38,-59.17 319.94,-64.03"/>
</g>
<!-- google_cloud_run_v2_service_iam_member.public -->
<g id="node5" class="node">
<title>google_cloud_run_v2_service_iam_member.public</title>
<polygon fill="none" stroke="black" points="265.5,-36 3.5,-36 3.5,0 265.5,0 265.5,-36"/>
<text text-anchor="middle" x="134.5" y="-15.5" font-family="sans-serif" font-size="10.00">google_cloud_run_v2_service_iam_member.public</text>
</g>
<!-- google_cloud_run_v2_service_iam_member.public&#45;&gt;google_cloud_run_v2_service.hello -->
<g id="edge6" class="edge">
<title>google_cloud_run_v2_service_iam_member.public&#45;&gt;google_cloud_run_v2_service.hello</title>
<path fill="none" stroke="black" d="M265.86,-32.69C283.85,-34.72 302.09,-36.77 319.42,-38.72"/>
<polygon fill="black" stroke="black" points="319.56,-41.2 326.79,-39.55 320.11,-36.34 319.56,-41.2"/>
</g>
<!-- google_service_account.run&#45;&gt;google_project_service.required -->
<g id="edge7" class="edge">
<title>google_service_account.run&#45;&gt;google_project_service.required</title>
<path fill="none" stroke="black" d="M1122.64,-27.77C1147.18,-30.97 1174.73,-34.55 1200.43,-37.89"/>
<polygon fill="black" stroke="black" points="1200.37,-40.36 1207.62,-38.83 1201,-35.5 1200.37,-40.36"/>
</g>
</g>
</svg>
