<?xml version="1.0" encoding="UTF-8" standalone="no"?>
<!DOCTYPE svg PUBLIC "-//W3C//DTD SVG 1.1//EN"
 "http://www.w3.org/Graphics/SVG/1.1/DTD/svg11.dtd">
<!-- Generated by graphviz version 2.43.0 (0)
 -->
<!-- Title: G Pages: 1 -->
<svg width="1435pt" height="954pt"
 viewBox="0.00 0.00 1435.00 954.00" xmlns="http://www.w3.org/2000/svg" xmlns:xlink="http://www.w3.org/1999/xlink">
<g id="graph0" class="graph" transform="scale(1 1) rotate(0) translate(4 950)">
<title>G</title>
<polygon fill="white" stroke="transparent" points="-4,4 -4,-950 1431,-950 1431,4 -4,4"/>
<!-- google_compute_address.a_nat_egress -->
<g id="node1" class="node">
<title>google_compute_address.a_nat_egress</title>
<polygon fill="none" stroke="black" points="918.5,-686 709.5,-686 709.5,-650 918.5,-650 918.5,-686"/>
<text text-anchor="middle" x="814" y="-665.5" font-family="sans-serif" font-size="10.00">google_compute_address.a_nat_egress</text>
</g>
<!-- google_compute_address.b_nat_egress -->
<g id="node2" class="node">
<title>google_compute_address.b_nat_egress</title>
<polygon fill="none" stroke="black" points="918.5,-361 709.5,-361 709.5,-325 918.5,-325 918.5,-361"/>
<text text-anchor="middle" x="814" y="-340.5" font-family="sans-serif" font-size="10.00">google_compute_address.b_nat_egress</text>
</g>
<!-- google_compute_firewall.allow_iap_ssh_bastion -->
<g id="node3" class="node">
<title>google_compute_firewall.allow_iap_ssh_bastion</title>
<polygon fill="none" stroke="black" points="939.5,-816 688.5,-816 688.5,-780 939.5,-780 939.5,-816"/>
<text text-anchor="middle" x="814" y="-795.5" font-family="sans-serif" font-size="10.00">google_compute_firewall.allow_iap_ssh_bastion</text>
</g>
<!-- google_compute_network.vpc_a -->
<g id="node9" class="node">
<title>google_compute_network.vpc_a</title>
<polygon fill="none" stroke="black" points="1185,-686 1011,-686 1011,-650 1185,-650 1185,-686"/>
<text text-anchor="middle" x="1098" y="-665.5" font-family="sans-serif" font-size="10.00">google_compute_network.vpc_a</text>
</g>
<!-- google_compute_firewall.allow_iap_ssh_bastion&#45;&gt;google_compute_network.vpc_a -->
<g id="edge1" class="edge">
<title>google_compute_firewall.allow_iap_ssh_bastion&#45;&gt;google_compute_network.vpc_a</title>
<path fill="none" stroke="black" d="M892.87,-779.94C924.17,-772.68 953,-766 953,-766 953,-766 1021.97,-719.06 1064.44,-690.16"/>
<polygon fill="black" stroke="black" points="1065.84,-692.17 1070.25,-686.2 1063.09,-688.12 1065.84,-692.17"/>
</g>
<!-- google_compute_firewall.allow_iap_ssh_gke_nodes -->
<g id="node4" class="node">
<title>google_compute_firewall.allow_iap_ssh_gke_nodes</title>
<polygon fill="none" stroke="black" points="947.5,-881 680.5,-881 680.5,-845 947.5,-845 947.5,-881"/>
<text text-anchor="middle" x="814" y="-860.5" font-family="sans-serif" font-size="10.00">google_compute_firewall.allow_iap_ssh_gke_nodes</text>
</g>
<!-- google_compute_firewall.allow_iap_ssh_gke_nodes&#45;&gt;google_compute_network.vpc_a -->
<g id="edge2" class="edge">
<title>google_compute_firewall.allow_iap_ssh_gke_nodes&#45;&gt;google_compute_network.vpc_a</title>
<path fill="none" stroke="black" d="M892.87,-844.94C924.17,-837.68 953,-831 953,-831 953,-831 1036.27,-736.74 1076.17,-691.58"/>
<polygon fill="black" stroke="black" points="1078.24,-692.93 1081.04,-686.07 1074.57,-689.69 1078.24,-692.93"/>
</g>
<!-- google_compute_firewall.b_allow_http_from_a_nodes -->
<g id="node5" class="node">
<title>google_compute_firewall.b_allow_http_from_a_nodes</title>
<polygon fill="none" stroke="black" points="953,-231 675,-231 675,-195 953,-195 953,-231"/>
<text text-anchor="middle" x="814" y="-210.5" font-family="sans-serif" font-size="10.00">google_compute_firewall.b_allow_http_from_a_nodes</text>
</g>
<!-- google_compute_network.vpc_b -->
<g id="node10" class="node">
<title>google_compute_network.vpc_b</title>
<polygon fill="none" stroke="black" points="1185,-296 1011,-296 1011,-260 1185,-260 1185,-296"/>
<text text-anchor="middle" x="1098" y="-275.5" font-family="sans-serif" font-size="10.00">google_compute_network.vpc_b</text>
</g>
<!-- google_compute_firewall.b_allow_http_from_a_nodes&#45;&gt;google_compute_network.vpc_b -->
<g id="edge3" class="edge">
<title>google_compute_firewall.b_allow_http_from_a_nodes&#45;&gt;google_compute_network.vpc_b</title>
<path fill="none" stroke="black" d="M893.18,-231.02C930.01,-239.51 974.02,-249.65 1011.71,-258.34"/>
<polygon fill="black" stroke="black" points="1011.3,-260.76 1018.67,-259.95 1012.4,-255.99 1011.3,-260.76"/>
</g>
<!-- google_compute_firewall.b_allow_iap_ssh -->
<g id="node6" class="node">
<title>google_compute_firewall.b_allow_iap_ssh</title>
<polygon fill="none" stroke="black" points="924.5,-166 703.5,-166 703.5,-130 924.5,-130 924.5,-166"/>
<text text-anchor="middle" x="814" y="-145.5" font-family="sans-serif" font-size="10.00">google_compute_firewall.b_allow_iap_ssh</text>
</g>
<!-- google_compute_firewall.b_allow_iap_ssh&#45;&gt;google_compute_network.vpc_b -->
<g id="edge4" class="edge">
<title>google_compute_firewall.b_allow_iap_ssh&#45;&gt;google_compute_network.vpc_b</title>
<path fill="none" stroke="black" d="M890.46,-166.04C922.68,-173.75 953,-181 953,-181 953,-181 1021.97,-227.46 1064.44,-256.07"/>
<polygon fill="black" stroke="black" points="1063.08,-258.1 1070.25,-259.98 1065.82,-254.04 1063.08,-258.1"/>
</g>
<!-- google_compute_instance.bastion -->
<g id="node7" class="node">
<title>google_compute_instance.bastion</title>
<polygon fill="none" stroke="black" points="556,-816 373,-816 373,-780 556,-780 556,-816"/>
<text text-anchor="middle" x="464.5" y="-795.5" font-family="sans-serif" font-size="10.00">google_compute_instance.bastion</text>
</g>
<!-- google_compute_instance.bastion&#45;&gt;google_compute_firewall.allow_iap_ssh_bastion -->
<g id="edge5" class="edge">
<title>google_compute_instance.bastion&#45;&gt;google_compute_firewall.allow_iap_ssh_bastion</title>
<path fill="none" stroke="black" d="M556.35,-798C594.46,-798 639.53,-798 681.18,-798"/>
<polygon fill="black" stroke="black" points="681.37,-800.45 688.37,-798 681.37,-795.55 681.37,-800.45"/>
</g>
<!-- google_compute_subnetwork.bastion -->
<g id="node17" class="node">
<title>google_compute_subnetwork.bastion</title>
<polygon fill="none" stroke="black" points="913.5,-751 714.5,-751 714.5,-715 913.5,-715 913.5,-751"/>
<text text-anchor="middle" x="814" y="-730.5" font-family="sans-serif" font-size="10.00">google_compute_subnetwork.bastion</text>
</g>
<!-- google_compute_instance.bastion&#45;&gt;google_compute_subnetwork.bastion -->
<g id="edge6" class="edge">
<title>google_compute_instance.bastion&#45;&gt;google_compute_subnetwork.bastion</title>
<path fill="none" stroke="black" d="M556.35,-781.01C603.31,-772.22 660.82,-761.47 709.49,-752.36"/>
<polygon fill="black" stroke="black" points="710.17,-754.73 716.6,-751.03 709.27,-749.91 710.17,-754.73"/>
</g>
<!-- google_project_iam_member.bastion_gke -->
<g id="node25" class="node">
<title>google_project_iam_member.bastion_gke</title>
<polygon fill="none" stroke="black" points="924,-946 704,-946 704,-910 924,-910 924,-946"/>
<text text-anchor="middle" x="814" y="-925.5" font-family="sans-serif" font-size="10.00">google_project_iam_member.bastion_gke</text>
</g>
<!-- google_compute_instance.bastion&#45;&gt;google_project_iam_member.bastion_gke -->
<g id="edge7" class="edge">
<title>google_compute_instance.bastion&#45;&gt;google_project_iam_member.bastion_gke</title>
<path fill="none" stroke="black" d="M504.41,-816.2C565,-844.54 675,-896 675,-896 675,-896 699.71,-901.73 728.21,-908.34"/>
<polygon fill="black" stroke="black" points="727.75,-910.75 735.13,-909.94 728.86,-905.97 727.75,-910.75"/>
</g>
<!-- google_compute_instance.target_vm -->
<g id="node8" class="node">
<title>google_compute_instance.target_vm</title>
<polygon fill="none" stroke="black" points="563,-231 366,-231 366,-195 563,-195 563,-231"/>
<text text-anchor="middle" x="464.5" y="-210.5" font-family="sans-serif" font-size="10.00">google_compute_instance.target_vm</text>
</g>
<!-- google_compute_instance.target_vm&#45;&gt;google_compute_firewall.b_allow_http_from_a_nodes -->
<g id="edge8" class="edge">
<title>google_compute_instance.target_vm&#45;&gt;google_compute_firewall.b_allow_http_from_a_nodes</title>
<path fill="none" stroke="black" d="M563.22,-213C595.69,-213 632.56,-213 667.82,-213"/>
<polygon fill="black" stroke="black" points="667.85,-215.45 674.85,-213 667.85,-210.55 667.85,-215.45"/>
</g>
<!-- google_compute_instance.target_vm&#45;&gt;google_compute_firewall.b_allow_iap_ssh -->
<g id="edge9" class="edge">
<title>google_compute_instance.target_vm&#45;&gt;google_compute_firewall.b_allow_iap_ssh</title>
<path fill="none" stroke="black" d="M561.84,-194.98C607.69,-186.4 662.58,-176.14 709.34,-167.39"/>
<polygon fill="black" stroke="black" points="710.05,-169.75 716.48,-166.05 709.14,-164.93 710.05,-169.75"/>
</g>
<!-- google_compute_subnetwork.target -->
<g id="node19" class="node">
<title>google_compute_subnetwork.target</title>
<polygon fill="none" stroke="black" points="910,-296 718,-296 718,-260 910,-260 910,-296"/>
<text text-anchor="middle" x="814" y="-275.5" font-family="sans-serif" font-size="10.00">google_compute_subnetwork.target</text>
</g>
<!-- google_compute_instance.target_vm&#45;&gt;google_compute_subnetwork.target -->
<g id="edge10" class="edge">
<title>google_compute_instance.target_vm&#45;&gt;google_compute_subnetwork.target</title>
<path fill="none" stroke="black" d="M561.84,-231.02C608.26,-239.7 663.96,-250.12 711.09,-258.94"/>
<polygon fill="black" stroke="black" points="710.65,-261.35 717.98,-260.23 711.55,-256.53 710.65,-261.35"/>
</g>
<!-- google_project_service.a_required -->
<g id="node32" class="node">
<title>google_project_service.a_required</title>
<polygon fill="none" stroke="black" points="1427,-686 1243,-686 1243,-650 1427,-650 1427,-686"/>
<text text-anchor="middle" x="1335" y="-665.5" font-family="sans-serif" font-size="10.00">google_project_service.a_required</text>
</g>
<!-- google_compute_network.vpc_a&#45;&gt;google_project_service.a_required -->
<g id="edge11" class="edge">
<title>google_compute_network.vpc_a&#45;&gt;google_project_service.a_required</title>
<path fill="none" stroke="black" d="M1185.17,-668C1201.56,-668 1218.83,-668 1235.57,-668"/>
<polygon fill="black" stroke="black" points="1235.7,-670.45 1242.7,-668 1235.7,-665.55 1235.7,-670.45"/>
</g>
<!-- google_project_service.b_required -->
<g id="node33" class="node">
<title>google_project_service.b_required</title>
<polygon fill="none" stroke="black" points="1427,-296 1243,-296 1243,-260 1427,-260 1427,-296"/>
<text text-anchor="middle" x="1335" y="-275.5" font-family="sans-serif" font-size="10.00">google_project_service.b_required</text>
</g>
<!-- google_compute_network.vpc_b&#45;&gt;google_project_service.b_required -->
<g id="edge12" class="edge">
<title>google_compute_network.vpc_b&#45;&gt;google_project_service.b_required</title>
<path fill="none" stroke="black" d="M1185.17,-278C1201.56,-278 1218.83,-278 1235.57,-278"/>
<polygon fill="black" stroke="black" points="1235.7,-280.45 1242.7,-278 1235.7,-275.55 1235.7,-280.45"/>
</g>
<!-- google_compute_network_peering.a_to_b -->
<g id="node11" class="node">
<title>google_compute_network_peering.a_to_b</title>
<polygon fill="none" stroke="black" points="924,-491 704,-491 704,-455 924,-455 924,-491"/>
<text text-anchor="middle" x="814" y="-470.5" font-family="sans-serif" font-size="10.00">google_compute_network_peering.a_to_b</text>
</g>
<!-- google_compute_network_peering.a_to_b&#45;&gt;google_compute_network.vpc_a -->
<g id="edge13" class="edge">
<title>google_compute_network_peering.a_to_b&#45;&gt;google_compute_network.vpc_a</title>
<path fill="none" stroke="black" d="M890.46,-491.04C922.68,-498.75 953,-506 953,-506 953,-506 1035.86,-599.22 1075.87,-644.23"/>
<polygon fill="black" stroke="black" points="1074.28,-646.13 1080.76,-649.73 1077.94,-642.87 1074.28,-646.13"/>
</g>
<!-- google_compute_network_peering.a_to_b&#45;&gt;google_compute_network.vpc_b -->
<g id="edge14" class="edge">
<title>google_compute_network_peering.a_to_b&#45;&gt;google_compute_network.vpc_b</title>
<path fill="none" stroke="black" d="M892.87,-454.94C924.17,-447.68 953,-441 953,-441 953,-441 1036.27,-346.74 1076.17,-301.58"/>
<polygon fill="black" stroke="black" points="1078.24,-302.93 1081.04,-296.07 1074.57,-299.69 1078.24,-302.93"/>
</g>
<!-- google_compute_network_peering.b_to_a -->
<g id="node12" class="node">
<title>google_compute_network_peering.b_to_a</title>
<polygon fill="none" stroke="black" points="574.5,-491 354.5,-491 354.5,-455 574.5,-455 574.5,-491"/>
<text text-anchor="middle" x="464.5" y="-470.5" font-family="sans-serif" font-size="10.00">google_compute_network_peering.b_to_a</text>
</g>
<!-- google_compute_network_peering.b_to_a&#45;&gt;google_compute_network_peering.a_to_b -->
<g id="edge15" class="edge">
<title>google_compute_network_peering.b_to_a&#45;&gt;google_compute_network_peering.a_to_b</title>
<path fill="none" stroke="black" d="M574.97,-473C613.65,-473 657.27,-473 696.5,-473"/>
<polygon fill="black" stroke="black" points="696.78,-475.45 703.78,-473 696.78,-470.55 696.78,-475.45"/>
</g>
<!-- google_compute_router.a_nat -->
<g id="node13" class="node">
<title>google_compute_router.a_nat</title>
<polygon fill="none" stroke="black" points="894.5,-621 733.5,-621 733.5,-585 894.5,-585 894.5,-621"/>
<text text-anchor="middle" x="814" y="-600.5" font-family="sans-serif" font-size="10.00">google_compute_router.a_nat</text>
</g>
<!-- google_compute_router.a_nat&#45;&gt;google_compute_network.vpc_a -->
<g id="edge16" class="edge">
<title>google_compute_router.a_nat&#45;&gt;google_compute_network.vpc_a</title>
<path fill="none" stroke="black" d="M893.18,-621.02C930.01,-629.51 974.02,-639.65 1011.71,-648.34"/>
<polygon fill="black" stroke="black" points="1011.3,-650.76 1018.67,-649.95 1012.4,-645.99 1011.3,-650.76"/>
</g>
<!-- google_compute_router.b_nat -->
<g id="node14" class="node">
<title>google_compute_router.b_nat</title>
<polygon fill="none" stroke="black" points="894.5,-426 733.5,-426 733.5,-390 894.5,-390 894.5,-426"/>
<text text-anchor="middle" x="814" y="-405.5" font-family="sans-serif" font-size="10.00">google_compute_router.b_nat</text>
</g>
<!-- google_compute_router.b_nat&#45;&gt;google_compute_network.vpc_b -->
<g id="edge17" class="edge">
<title>google_compute_router.b_nat&#45;&gt;google_compute_network.vpc_b</title>
<path fill="none" stroke="black" d="M892.87,-389.94C924.17,-382.68 953,-376 953,-376 953,-376 1021.97,-329.06 1064.44,-300.16"/>
<polygon fill="black" stroke="black" points="1065.84,-302.17 1070.25,-296.2 1063.09,-298.12 1065.84,-302.17"/>
</g>
<!-- google_compute_router_nat.a_nat -->
<g id="node15" class="node">
<title>google_compute_router_nat.a_nat</title>
<polygon fill="none" stroke="black" points="556,-654 373,-654 373,-618 556,-618 556,-654"/>
<text text-anchor="middle" x="464.5" y="-633.5" font-family="sans-serif" font-size="10.00">google_compute_router_nat.a_nat</text>
</g>
<!-- google_compute_router_nat.a_nat&#45;&gt;google_compute_address.a_nat_egress -->
<g id="edge18" class="edge">
<title>google_compute_router_nat.a_nat&#45;&gt;google_compute_address.a_nat_egress</title>
<path fill="none" stroke="black" d="M556.35,-644.37C601.01,-648.48 655.22,-653.47 702.29,-657.81"/>
<polygon fill="black" stroke="black" points="702.28,-660.26 709.48,-658.47 702.73,-655.39 702.28,-660.26"/>
</g>
<!-- google_compute_router_nat.a_nat&#45;&gt;google_compute_router.a_nat -->
<g id="edge19" class="edge">
<title>google_compute_router_nat.a_nat&#45;&gt;google_compute_router.a_nat</title>
<path fill="none" stroke="black" d="M556.35,-627.37C608.78,-622.39 674.37,-616.16 726.12,-611.25"/>
<polygon fill="black" stroke="black" points="726.59,-613.67 733.33,-610.57 726.12,-608.79 726.59,-613.67"/>
</g>
<!-- google_compute_router_nat.a_nat&#45;&gt;google_compute_subnetwork.bastion -->
<g id="edge20" class="edge">
<title>google_compute_router_nat.a_nat&#45;&gt;google_compute_subnetwork.bastion</title>
<path fill="none" stroke="black" d="M523.58,-654.02C585.58,-673.26 675,-701 675,-701 675,-701 699.71,-706.73 728.21,-713.34"/>
<polygon fill="black" stroke="black" points="727.75,-715.75 735.13,-714.94 728.86,-710.97 727.75,-715.75"/>
</g>
<!-- google_compute_subnetwork.gke -->
<g id="node18" class="node">
<title>google_compute_subnetwork.gke</title>
<polygon fill="none" stroke="black" points="904,-556 724,-556 724,-520 904,-520 904,-556"/>
<text text-anchor="middle" x="814" y="-535.5" font-family="sans-serif" font-size="10.00">google_compute_subnetwork.gke</text>
</g>
<!-- google_compute_router_nat.a_nat&#45;&gt;google_compute_subnetwork.gke -->
<g id="edge21" class="edge">
<title>google_compute_router_nat.a_nat&#45;&gt;google_compute_subnetwork.gke</title>
<path fill="none" stroke="black" d="M523.58,-617.98C585.58,-598.74 675,-571 675,-571 675,-571 700.99,-564.79 730.41,-557.75"/>
<polygon fill="black" stroke="black" points="731.3,-560.06 737.54,-556.04 730.16,-555.29 731.3,-560.06"/>
</g>
<!-- google_compute_router_nat.b_nat -->
<g id="node16" class="node">
<title>google_compute_router_nat.b_nat</title>
<polygon fill="none" stroke="black" points="556,-361 373,-361 373,-325 556,-325 556,-361"/>
<text text-anchor="middle" x="464.5" y="-340.5" font-family="sans-serif" font-size="10.00">google_compute_router_nat.b_nat</text>
</g>
<!-- google_compute_router_nat.b_nat&#45;&gt;google_compute_address.b_nat_egress -->
<g id="edge22" class="edge">
<title>google_compute_router_nat.b_nat&#45;&gt;google_compute_address.b_nat_egress</title>
<path fill="none" stroke="black" d="M556.35,-343C601.01,-343 655.22,-343 702.29,-343"/>
<polygon fill="black" stroke="black" points="702.48,-345.45 709.48,-343 702.48,-340.55 702.48,-345.45"/>
</g>
<!-- google_compute_router_nat.b_nat&#45;&gt;google_compute_router.b_nat -->
<g id="edge23" class="edge">
<title>google_compute_router_nat.b_nat&#45;&gt;google_compute_router.b_nat</title>
<path fill="none" stroke="black" d="M556.35,-359.99C608.89,-369.82 674.64,-382.12 726.44,-391.81"/>
<polygon fill="black" stroke="black" points="725.99,-394.22 733.33,-393.1 726.89,-389.4 725.99,-394.22"/>
</g>
<!-- google_compute_router_nat.b_nat&#45;&gt;google_compute_subnetwork.target -->
<g id="edge24" class="edge">
<title>google_compute_router_nat.b_nat&#45;&gt;google_compute_subnetwork.target</title>
<path fill="none" stroke="black" d="M556.35,-326.01C603.69,-317.15 661.76,-306.29 710.68,-297.14"/>
<polygon fill="black" stroke="black" points="711.4,-299.5 717.83,-295.8 710.5,-294.68 711.4,-299.5"/>
</g>
<!-- google_compute_subnetwork.bastion&#45;&gt;google_compute_network.vpc_a -->
<g id="edge25" class="edge">
<title>google_compute_subnetwork.bastion&#45;&gt;google_compute_network.vpc_a</title>
<path fill="none" stroke="black" d="M893.18,-714.98C930.01,-706.49 974.02,-696.35 1011.71,-687.66"/>
<polygon fill="black" stroke="black" points="1012.4,-690.01 1018.67,-686.05 1011.3,-685.24 1012.4,-690.01"/>
</g>
<!-- google_compute_subnetwork.gke&#45;&gt;google_compute_network.vpc_a -->
<g id="edge26" class="edge">
<title>google_compute_subnetwork.gke&#45;&gt;google_compute_network.vpc_a</title>
<path fill="none" stroke="black" d="M890.46,-556.04C922.68,-563.75 953,-571 953,-571 953,-571 1021.97,-617.46 1064.44,-646.07"/>
<polygon fill="black" stroke="black" points="1063.08,-648.1 1070.25,-649.98 1065.82,-644.04 1063.08,-648.1"/>
</g>
<!-- google_compute_subnetwork.target&#45;&gt;google_compute_network.vpc_b -->
<g id="edge27" class="edge">
<title>google_compute_subnetwork.target&#45;&gt;google_compute_network.vpc_b</title>
<path fill="none" stroke="black" d="M910.08,-278C940.28,-278 973.63,-278 1003.7,-278"/>
<polygon fill="black" stroke="black" points="1003.87,-280.45 1010.87,-278 1003.87,-275.55 1003.87,-280.45"/>
</g>
<!-- google_container_cluster.primary -->
<g id="node20" class="node">
<title>google_container_cluster.primary</title>
<polygon fill="none" stroke="black" points="554,-556 375,-556 375,-520 554,-520 554,-556"/>
<text text-anchor="middle" x="464.5" y="-535.5" font-family="sans-serif" font-size="10.00">google_container_cluster.primary</text>
</g>
<!-- google_container_cluster.primary&#45;&gt;google_compute_subnetwork.gke -->
<g id="edge28" class="edge">
<title>google_container_cluster.primary&#45;&gt;google_compute_subnetwork.gke</title>
<path fill="none" stroke="black" d="M554.09,-538C603.83,-538 665.94,-538 716.86,-538"/>
<polygon fill="black" stroke="black" points="716.97,-540.45 723.97,-538 716.97,-535.55 716.97,-540.45"/>
</g>
<!-- google_container_node_pool.primary -->
<g id="node21" class="node">
<title>google_container_node_pool.primary</title>
<polygon fill="none" stroke="black" points="225.5,-133 28.5,-133 28.5,-97 225.5,-97 225.5,-133"/>
<text text-anchor="middle" x="127" y="-112.5" font-family="sans-serif" font-size="10.00">google_container_node_pool.primary</text>
</g>
<!-- google_container_node_pool.primary&#45;&gt;google_container_cluster.primary -->
<g id="edge29" class="edge">
<title>google_container_node_pool.primary&#45;&gt;google_container_cluster.primary</title>
<path fill="none" stroke="black" d="M199.1,-133.06C227.68,-140.32 254,-147 254,-147 254,-147 312,-506 312,-506 312,-506 339.35,-511.78 370.81,-518.42"/>
<polygon fill="black" stroke="black" points="370.65,-520.89 378.01,-519.94 371.67,-516.1 370.65,-520.89"/>
</g>
<!-- google_project_iam_member.gke_node_logging -->
<g id="node27" class="node">
<title>google_project_iam_member.gke_node_logging</title>
<polygon fill="none" stroke="black" points="589,-101 340,-101 340,-65 589,-65 589,-101"/>
<text text-anchor="middle" x="464.5" y="-80.5" font-family="sans-serif" font-size="10.00">google_project_iam_member.gke_node_logging</text>
</g>
<!-- google_container_node_pool.primary&#45;&gt;google_project_iam_member.gke_node_logging -->
<g id="edge30" class="edge">
<title>google_container_node_pool.primary&#45;&gt;google_project_iam_member.gke_node_logging</title>
<path fill="none" stroke="black" d="M225.94,-105.66C259.31,-102.48 297.15,-98.87 332.68,-95.48"/>
<polygon fill="black" stroke="black" points="333.01,-97.91 339.75,-94.8 332.55,-93.03 333.01,-97.91"/>
</g>
<!-- google_project_iam_member.gke_node_monitoring_metric -->
<g id="node28" class="node">
<title>google_project_iam_member.gke_node_monitoring_metric</title>
<polygon fill="none" stroke="black" points="616,-36 313,-36 313,0 616,0 616,-36"/>
<text text-anchor="middle" x="464.5" y="-15.5" font-family="sans-serif" font-size="10.00">google_project_iam_member.gke_node_monitoring_metric</text>
</g>
<!-- google_container_node_pool.primary&#45;&gt;google_project_iam_member.gke_node_monitoring_metric -->
<g id="edge31" class="edge">
<title>google_container_node_pool.primary&#45;&gt;google_project_iam_member.gke_node_monitoring_metric</title>
<path fill="none" stroke="black" d="M179.25,-96.89C233.7,-77.66 312,-50 312,-50 312,-50 339.35,-44.22 370.81,-37.58"/>
<polygon fill="black" stroke="black" points="371.67,-39.9 378.01,-36.06 370.65,-35.11 371.67,-39.9"/>
</g>
<!-- google_project_iam_member.gke_node_monitoring_viewer -->
<g id="node29" class="node">
<title>google_project_iam_member.gke_node_monitoring_viewer</title>
<polygon fill="none" stroke="black" points="617,-166 312,-166 312,-130 617,-130 617,-166"/>
<text text-anchor="middle" x="464.5" y="-145.5" font-family="sans-serif" font-size="10.00">google_project_iam_member.gke_node_monitoring_viewer</text>
</g>
<!-- google_container_node_pool.primary&#45;&gt;google_project_iam_member.gke_node_monitoring_viewer -->
<g id="edge32" class="edge">
<title>google_container_node_pool.primary&#45;&gt;google_project_iam_member.gke_node_monitoring_viewer</title>
<path fill="none" stroke="black" d="M225.94,-124.63C250.62,-127.06 277.75,-129.73 304.58,-132.37"/>
<polygon fill="black" stroke="black" points="304.56,-134.83 311.77,-133.08 305.04,-129.95 304.56,-134.83"/>
</g>
<!-- google_project_iam_member.b_compute_viewer -->
<g id="node22" class="node">
<title>google_project_iam_member.b_compute_viewer</title>
<polygon fill="none" stroke="black" points="254,-198 0,-198 0,-162 254,-162 254,-198"/>
<text text-anchor="middle" x="127" y="-177.5" font-family="sans-serif" font-size="10.00">google_project_iam_member.b_compute_viewer</text>
</g>
<!-- google_project_iam_member.b_iap_tunnel -->
<g id="node23" class="node">
<title>google_project_iam_member.b_iap_tunnel</title>
<polygon fill="none" stroke="black" points="239,-263 15,-263 15,-227 239,-227 239,-263"/>
<text text-anchor="middle" x="127" y="-242.5" font-family="sans-serif" font-size="10.00">google_project_iam_member.b_iap_tunnel</text>
</g>
<!-- google_project_iam_member.b_os_login -->
<g id="node24" class="node">
<title>google_project_iam_member.b_os_login</title>
<polygon fill="none" stroke="black" points="233.5,-328 20.5,-328 20.5,-292 233.5,-292 233.5,-328"/>
<text text-anchor="middle" x="127" y="-307.5" font-family="sans-serif" font-size="10.00">google_project_iam_member.b_os_login</text>
</g>
<!-- google_service_account.bastion -->
<g id="node34" class="node">
<title>google_service_account.bastion</title>
<polygon fill="none" stroke="black" points="1184.5,-946 1011.5,-946 1011.5,-910 1184.5,-910 1184.5,-946"/>
<text text-anchor="middle" x="1098" y="-925.5" font-family="sans-serif" font-size="10.00">google_service_account.bastion</text>
</g>
<!-- google_project_iam_member.bastion_gke&#45;&gt;google_service_account.bastion -->
<g id="edge33" class="edge">
<title>google_project_iam_member.bastion_gke&#45;&gt;google_service_account.bastion</title>
<path fill="none" stroke="black" d="M924.03,-928C950.52,-928 978.6,-928 1004.26,-928"/>
<polygon fill="black" stroke="black" points="1004.43,-930.45 1011.43,-928 1004.43,-925.55 1004.43,-930.45"/>
</g>
<!-- google_project_iam_member.compute_viewer -->
<g id="node26" class="node">
<title>google_project_iam_member.compute_viewer</title>
<polygon fill="none" stroke="black" points="248,-393 6,-393 6,-357 248,-357 248,-393"/>
<text text-anchor="middle" x="127" y="-372.5" font-family="sans-serif" font-size="10.00">google_project_iam_member.compute_viewer</text>
</g>
<!-- google_service_account.gke_node -->
<g id="node35" class="node">
<title>google_service_account.gke_node</title>
<polygon fill="none" stroke="black" points="905.5,-101 722.5,-101 722.5,-65 905.5,-65 905.5,-101"/>
<text text-anchor="middle" x="814" y="-80.5" font-family="sans-serif" font-size="10.00">google_service_account.gke_node</text>
</g>
<!-- google_project_iam_member.gke_node_logging&#45;&gt;google_service_account.gke_node -->
<g id="edge34" class="edge">
<title>google_project_iam_member.gke_node_logging&#45;&gt;google_service_account.gke_node</title>
<path fill="none" stroke="black" d="M589.48,-83C630.77,-83 676.15,-83 715.17,-83"/>
<polygon fill="black" stroke="black" points="715.38,-85.45 722.38,-83 715.38,-80.55 715.38,-85.45"/>
</g>
<!-- google_project_iam_member.gke_node_monitoring_metric&#45;&gt;google_service_account.gke_node -->
<g id="edge35" class="edge">
<title>google_project_iam_member.gke_node_monitoring_metric&#45;&gt;google_service_account.gke_node</title>
<path fill="none" stroke="black" d="M561.84,-36.02C609.7,-44.97 667.41,-55.77 715.44,-64.75"/>
<polygon fill="black" stroke="black" points="715.12,-67.18 722.45,-66.06 716.02,-62.37 715.12,-67.18"/>
</g>
<!-- google_project_iam_member.gke_node_monitoring_viewer&#45;&gt;google_service_account.gke_node -->
<g id="edge36" class="edge">
<title>google_project_iam_member.gke_node_monitoring_viewer&#45;&gt;google_service_account.gke_node</title>
<path fill="none" stroke="black" d="M561.84,-129.98C609.7,-121.03 667.41,-110.23 715.44,-101.25"/>
<polygon fill="black" stroke="black" points="716.02,-103.63 722.45,-99.94 715.12,-98.82 716.02,-103.63"/>
</g>
<!-- google_project_iam_member.iap_tunnel -->
<g id="node30" class="node">
<title>google_project_iam_member.iap_tunnel</title>
<polygon fill="none" stroke="black" points="233,-458 21,-458 21,-422 233,-422 233,-458"/>
<text text-anchor="middle" x="127" y="-437.5" font-family="sans-serif" font-size="10.00">google_project_iam_member.iap_tunnel</text>
</g>
<!-- google_project_iam_member.os_login -->
<g id="node31" class="node">
<title>google_project_iam_member.os_login</title>
<polygon fill="none" stroke="black" points="228,-523 26,-523 26,-487 228,-487 228,-523"/>
<text text-anchor="middle" x="127" y="-502.5" font-family="sans-serif" font-size="10.00">google_project_iam_member.os_login</text>
</g>
</g>
</svg>
