<?xml version="1.0" encoding="UTF-8" standalone="no"?>
<!DOCTYPE svg PUBLIC "-//W3C//DTD SVG 1.1//EN"
 "http://www.w3.org/Graphics/SVG/1.1/DTD/svg11.dtd">
<!-- Generated by graphviz version 2.43.0 (0)
 -->
<!-- Title: G Pages: 1 -->
<svg width="801pt" height="44pt"
 viewBox="0.00 0.00 801.00 44.00" xmlns="http://www.w3.org/2000/svg" xmlns:xlink="http://www.w3.org/1999/xlink">
<g id="graph0" class="graph" transform="scale(1 1) rotate(0) translate(4 40)">
<title>G</title>
<polygon fill="white" stroke="transparent" points="-4,4 -4,-40 797,-40 797,4 -4,4"/>
<!-- google_project_service.secretmanager -->
<g id="node1" class="node">
<title>google_project_service.secretmanager</title>
<polygon fill="none" stroke="black" points="793,-36 587,-36 587,0 793,0 793,-36"/>
<text text-anchor="middle" x="690" y="-15.5" font-family="sans-serif" font-size="10.00">google_project_service.secretmanager</text>
</g>
<!-- google_secret_manager_secret.example -->
<g id="node2" class="node">
<title>google_secret_manager_secret.example</title>
<polygon fill="none" stroke="black" points="529,-36 314,-36 314,0 529,0 529,-36"/>
<text text-anchor="middle" x="421.5" y="-15.5" font-family="sans-serif" font-size="10.00">google_secret_manager_secret.example</text>
</g>
<!-- google_secret_manager_secret.example&#45;&gt;google_project_service.secretmanager -->
<g id="edge1" class="edge">
<title>google_secret_manager_secret.example&#45;&gt;google_project_service.secretmanager</title>
<path fill="none" stroke="black" d="M529.36,-18C545.96,-18 563.13,-18 579.78,-18"/>
<polygon fill="black" stroke="black" points="579.88,-20.45 586.88,-18 579.88,-15.55 579.88,-20.45"/>
</g>
<!-- google_secret_manager_secret_version.example -->
<g id="node3" class="node">
<title>google_secret_manager_secret_version.example</title>
<polygon fill="none" stroke="black" points="256,-36 0,-36 0,0 256,0 256,-36"/>
<text text-anchor="middle" x="128" y="-15.5" font-family="sans-serif" font-size="10.00">google_secret_manager_secret_version.example</text>
</g>
<!-- google_secret_manager_secret_version.example&#45;&gt;google_secret_manager_secret.example -->
<g id="edge2" class="edge">
<title>google_secret_manager_secret_version.example&#45;&gt;google_secret_manager_secret.example</title>
<path fill="none" stroke="black" d="M256.01,-18C272.92,-18 290.18,-18 306.85,-18"/>
<polygon fill="black" stroke="black" points="306.95,-20.45 313.95,-18 306.95,-15.55 306.95,-20.45"/>
</g>
</g>
</svg>
